<svg version="1.0" xmlns="http://www.w3.org/2000/svg" width="169.333" fill="#f9415d" height="222.667" viewBox="0 0 127 167"><path d="M62.1 3.2c-2.3 7.1-9.3 16-24.8 32.1C13.9 59.4 6 70.9 2 86.6-.4 96-.6 108.9 1.6 118c4.1 17.5 17.2 33.9 33.4 41.9 8.5 4.2 20 7 28.5 7s20-2.8 28.5-7c10.5-5.2 22.7-16.9 27.8-26.6 9.8-18.8 9.5-42.9-.8-62-5.7-10.6-11.2-17.4-29-35.7C73.6 18.7 69.3 13.2 65.6 4.8L63.3-.4l-1.2 3.6zM91.7 68c8 9.3 13.3 20.4 14.8 30.7.7 5.1-.8 16-2.4 17.6-.5.5-3.3-2.3-6.4-6.3-3.1-4-15.1-17.1-26.7-29.1-25-26.1-24.4-24.4-14.3-35.2l6.8-7.2 12.6 13c6.9 7.1 14 14.6 15.6 16.5zm-46.8 9.3c3.6 3.8 6.7 7.2 6.9 7.6.2.5-4.3 6-9.8 12.2-5.6 6.3-11.3 13.3-12.7 15.7-2.1 3.5-2.8 4-4 3.1-3.1-2.6-4.5-7.2-4.5-14.3.1-10.4 3.1-18.3 11.2-29.4 3.6-5 2.8-5.4 12.9 5.1zm35.8 38.6c3.5 5 3.8 5.8 3.8 12.5 0 6.3-.4 7.8-2.8 11.5-7.2 10.9-21.4 12.9-31 4.2-7.4-6.6-9.5-15.5-5.8-23.7 1-2.3 5.9-8.5 10.7-13.9l8.8-9.7 6.3 6.8c3.5 3.8 8 9.3 10 12.3z"/></svg>