<svg xmlns="http://www.w3.org/2000/svg" viewBox="3505 -90 60.667 80">
  <defs>
    <style>
      .cls-1 {
        fill: #f9415d;
      }

      .cls-2 {
        fill: #4dd0e1;
      }

      .cls-3 {
        fill: #424242;
      }

      .cls-4 {
        fill: #f9415d;
      }

      .cls-5 {
        fill: #f5f5f5;
      }

      .cls-6 {
        fill: #eee;
      }
    </style>
  </defs>
  <g id="Golang" transform="translate(3505 -70)">
    <path id="Path_15" data-name="Path 15" class="cls-1" d="M38.329,43.793,33.476,39.25l-3.233,3.031L35.1,46.824a2.4,2.4,0,0,0,3.233,0A2.049,2.049,0,0,0,38.329,43.793Z" transform="translate(2.149 12.548)"/>
    <path id="Path_16" data-name="Path 16" class="cls-1" d="M41.329,25.793,36.476,21.25l-3.233,3.031L38.1,28.824a2.4,2.4,0,0,0,3.233,0A2.049,2.049,0,0,0,41.329,25.793Z" transform="translate(3.722 4.827)"/>
    <path id="Path_17" data-name="Path 17" class="cls-1" d="M12.914,43.793l4.847-4.543,3.233,3.031-4.847,4.543a2.4,2.4,0,0,1-3.233,0A2.049,2.049,0,0,1,12.914,43.793Z" transform="translate(-7.29 12.548)"/>
    <path id="Path_18" data-name="Path 18" class="cls-1" d="M9.664,25.793l4.847-4.543,3.233,3.031L12.9,28.824a2.4,2.4,0,0,1-3.233,0A2.049,2.049,0,0,1,9.664,25.793Z" transform="translate(-8.994 4.827)"/>
    <path id="Path_19" data-name="Path 19" class="cls-2" d="M41.671,9.287C41.671,6.524,39.92,5,36.746,5S31,8.667,31,11.43c0,1.429,2.93,2.143,4.573,2.143C38.747,13.573,41.671,12.05,41.671,9.287Z" transform="translate(2.546 -2.142)"/>
    <path id="Path_20" data-name="Path 20" class="cls-2" d="M10,9.287C10,6.524,11.751,5,14.925,5s5.746,3.667,5.746,6.43c0,1.429-2.93,2.143-4.573,2.143C12.924,13.573,10,12.05,10,9.287Z" transform="translate(-8.467 -2.142)"/>
    <path id="Path_21" data-name="Path 21" class="cls-3" d="M37.049,8.429a1.528,1.528,0,0,1-3.049,0,1.528,1.528,0,0,1,3.049,0Z" transform="translate(4.119 -1.284)"/>
    <path id="Path_22" data-name="Path 22" class="cls-3" d="M15.049,8.429a1.528,1.528,0,0,1-3.049,0,1.528,1.528,0,0,1,3.049,0Z" transform="translate(-7.418 -1.284)"/>
    <path id="Path_23" data-name="Path 23" class="cls-4" d="M50.635,47.3c0,6.821-4.907,14.289-20.288,14.289C17.961,61.585,11,54.117,11,47.3c0-7.145,1.524-8.294,1.524-14.289V18.718C12.524,11.9,17.211,3,30.347,3S49.11,8.7,49.11,17.289c0,4.287-.363,7.792,0,14.289C49.4,36.669,50.635,43.009,50.635,47.3Z" transform="translate(-7.942 -3)"/>
    <path id="Path_24" data-name="Path 24" class="cls-5" d="M37.2,11.716a5.913,5.913,0,0,1-6.1,5.716A5.913,5.913,0,0,1,25,11.716,5.913,5.913,0,0,1,31.1,6,5.913,5.913,0,0,1,37.2,11.716Z" transform="translate(-0.6 -1.713)"/>
    <path id="Path_25" data-name="Path 25" class="cls-5" d="M27.2,11.716a5.913,5.913,0,0,1-6.1,5.716A5.913,5.913,0,0,1,15,11.716,5.913,5.913,0,0,1,21.1,6,5.913,5.913,0,0,1,27.2,11.716Z" transform="translate(-5.845 -1.713)"/>
    <path id="Path_26" data-name="Path 26" class="cls-6" d="M24,21.287a1.528,1.528,0,0,0,3.049,0V17H24Z" transform="translate(-1.125 3.005)"/>
    <path id="Path_27" data-name="Path 27" class="cls-6" d="M22,21.287a1.528,1.528,0,0,0,3.049,0V17H22Z" transform="translate(-2.174 3.005)"/>
    <path id="Path_28" data-name="Path 28" class="cls-1" d="M29.909,19.716a4.62,4.62,0,0,1-1.542-.29,7.592,7.592,0,0,0-4.567,0,4.419,4.419,0,0,1-1.513.29A2.007,2.007,0,0,1,20,17.572C20,15.429,22.287,14,24.573,14h3.049c2.287,0,4.573,1.429,4.573,3.572A2.007,2.007,0,0,1,29.909,19.716Z" transform="translate(-3.222 1.718)"/>
    <path id="Path_29" data-name="Path 29" class="cls-3" d="M29.049,10.429a1.528,1.528,0,0,1-3.049,0,1.528,1.528,0,0,1,3.049,0Z" transform="translate(-0.076 -0.427)"/>
    <path id="Path_30" data-name="Path 30" class="cls-3" d="M19.049,10.429a1.528,1.528,0,0,1-3.049,0,1.528,1.528,0,0,1,3.049,0Z" transform="translate(-5.32 -0.427)"/>
    <path id="Path_31" data-name="Path 31" class="cls-3" d="M28.1,14.429c0-.787-1.364-1.429-3.049-1.429S22,13.642,22,14.429s1.364,1.429,3.049,1.429S28.1,15.216,28.1,14.429Z" transform="translate(-2.174 1.289)"/>
    <path id="love" class="cls-4" d="M26.452,10c-3.166,0-5.836,1.977-7.119,3.127C18.05,11.977,15.38,10,12.214,10A8.222,8.222,0,0,0,4,18.214c0,2.837,2.588,5.416,2.7,5.519L19.333,36.376,31.967,23.742c.111-.111,2.7-2.691,2.7-5.528A8.222,8.222,0,0,0,26.452,10Z" transform="translate(26 -30)"/>
  </g>
</svg>
