<svg xmlns="http://www.w3.org/2000/svg" viewBox="3299 -70 60 60">
  <defs>
    <style>
      .cls-1 {
        fill: #f9415d;
      }
    </style>
  </defs>
  <g id="JavaScript" transform="translate(3299 -70)">
    <path id="Path_32" data-name="Path 32" class="cls-1" d="M60.161,3.969H7.777A3.807,3.807,0,0,0,3.969,7.777V60.155a3.812,3.812,0,0,0,3.808,3.814H60.155a3.816,3.816,0,0,0,3.814-3.808V7.777A3.811,3.811,0,0,0,60.161,3.969ZM36.823,49.94c0,5.709-3.347,8.314-8.235,8.314a10.025,10.025,0,0,1-8.9-5.715l4.489-2.717a4.686,4.686,0,0,0,4.078,2.717c1.817,0,2.857-.709,2.857-3.465V31.109h5.715Zm12.4,8.314a9.961,9.961,0,0,1-9.54-5.715l4.286-2.857c1.164,1.907,2.441,3.735,5.13,3.735,2.256,0,3.442-1.131,3.442-2.694,0-1.862-1.226-2.526-3.712-3.611l-1.361-.591c-3.932-1.67-6.553-3.769-6.553-8.212,0-4.084,3.122-7.2,7.987-7.2,3.465,0,5.957,1.209,7.751,4.365L52.41,38.2c-.939-1.676-1.941-2.334-3.51-2.334A2.367,2.367,0,0,0,46.3,38.2c0,1.637,1.007,2.295,3.347,3.307L51,42.1c4.635,1.98,7.25,4,7.25,8.555C58.254,55.56,54.4,58.254,49.22,58.254Z" transform="translate(-3.969 -3.969)"/>
  </g>
</svg>
