<svg xmlns="http://www.w3.org/2000/svg" viewBox="3503 -203 62.609 60">
  <defs>
    <style>
      .cls-1 {
        fill: #f9415d;
      }
    </style>
  </defs>
  <g id="Python" transform="translate(3503 -203)">
    <path id="Path_14" data-name="Path 14" class="cls-1" d="M35.3,5c-13.013,0-13.043,5.217-13.043,5.217V20.652H37.913v2.609H11.826S4,22.059,4,36.3s7.826,13.043,7.826,13.043h7.826V45.109A11.433,11.433,0,0,1,31.065,33.7h8.478c4.851,0,8.8-1.345,8.8-6.2V10.217S48.317,5,35.3,5Zm-7.826,5.217a2.609,2.609,0,1,1-2.609,2.609A2.614,2.614,0,0,1,27.478,10.217ZM50.956,20.652V27.5c0,6.287-5.126,8.8-11.413,8.8H31.065a8.82,8.82,0,0,0-8.8,8.8V59.783S22.424,65,35.3,65s13.043-5.217,13.043-5.217V49.348H32.7V46.739H58.783s7.826,1.315,7.826-13.043-7.826-13.043-7.826-13.043ZM43.13,54.565a2.609,2.609,0,1,1-2.609,2.609A2.614,2.614,0,0,1,43.13,54.565Z" transform="translate(-4 -5)"/>
  </g>
</svg>
