<svg id="eo49HmCuvXy1" xmlns="http://www.w3.org/2000/svg" xmlns:xlink="http://www.w3.org/1999/xlink" viewBox="0 0 1393.084 1677.345" shape-rendering="geometricPrecision" text-rendering="geometricPrecision"><g><path d="M958.242,54.022c14.526-10.731,32.808-16.197,50.846-15.242c16.708.731,33.09,7.019,46.057,17.566c11.233,9.085,19.953,21.263,24.824,34.873c6.625,18.291,6.196,39.038-1.232,57.023-5.3,12.982-14.131,24.507-25.286,33.007-10.853,8.31-23.884,13.825-37.46,15.573c14.112,28.916,26.66,58.664,36.164,89.431c5.675,18.55,10.273,37.489,12.646,56.769c1.987,17.415,2.479,35.399-2.255,52.439-1.617,5.485-3.702,10.936-6.902,15.705-.224-3.215.555-6.401.375-9.621-.088-5.193-.853-10.454-2.947-15.237c3.137-17.195,1.724-34.863-1.004-52.015-5.319-31.58-15.68-62.084-27.815-91.642-4.136-9.932-8.457-19.787-13.05-29.52-8.135-17.278-16.66-34.469-27.401-50.305-9.596-14.234-20.898-27.522-34.605-37.961-12.553-9.65-27.225-16.397-42.579-20.162-23.323-5.787-47.519-5.899-71.402-6.25-12.646-.029-25.384-.58-37.908,1.598-29.827,4.691-57.325,19.831-79.269,40.275-4.491,4.194-8.797,8.593-12.811,13.245-3.273,3.731-6.235,7.716-8.987,11.847-3.863-.132-7.75-.624-11.584.107-7.94,1.383-15.364,4.759-22.5,8.398-16.952,8.963-32.321,20.6-46.993,32.876-26.563,22.52-50.802,47.65-73.643,73.901-12.008,14-23.543,28.467-33.534,43.992-5.655,8.939-11.063,18.194-14.341,28.302c16.241-10.527,33.587-19.256,51.348-26.914c40.456-17.195,83.488-28,127.076-33.339c70.769-8.715,142.8-3.049,212.283,12.202c2.012.468,4.072.779,6.011,1.525c20.459,7.414,41.06,14.429,61.587,21.643c18.345,6.513,36.705,13.089,54.431,21.17.107,8.223-.974,16.728-4.993,24.03-3.532,6.649-9.509,11.798-16.328,14.872-9.07,4.121-19.193,5.193-29.052,5.159-19.339-.399-38.327-5.022-56.565-11.194-10.137-3.483-20.05-7.58-29.719-12.188-19.095-9.056-40.285-12.841-61.29-13.498-22.534-.706-45.03,1.724-67.267,5.183-21.536,3.366-42.906,7.726-64.247,12.154-11.55,2.44-23.163,4.637-34.532,7.848-34.766,9.713-68.041,24.064-100.396,39.925-22.276,11.063-44.201,22.866-65.489,35.726-11.564-17.678-16.742-39.735-13.084-60.632c1.963-11.306,6.737-22.101,13.771-31.166.945-1.369,2.104-2.562,3.488-3.488-.166-5.797,1.622-11.408,3.634-16.776c3.463-8.88,8.154-17.225,13.206-25.291c10.502-16.557,22.749-31.936,35.506-46.793c25.214-28.92,52.025-56.618,81.837-80.843c14.229-11.389,29.13-22.14,45.512-30.236c9.421-4.545,19.582-8.388,30.153-8.398c10.624-13.937,23.509-26.09,37.684-36.364c16.289-11.754,34.634-20.79,54.134-25.759c12.319-3.152,25.053-4.691,37.776-4.52c23.577.19,47.266-.141,70.677,3.064c12.665,1.793,25.257,4.696,37.094,9.626c4.216-18.217,15.273-34.682,30.35-45.7m12.041,5.68c-13.484,7.999-24.001,20.82-29.242,35.594-1.008,3.083-2.197,6.191-2.455,9.445.404.185.823.365,1.252.55c3.079-12.086,11.779-21.799,21.419-29.281c7.258-5.539,15.14-10.303,23.499-13.98c7.994-3.42,16.606-5.68,25.345-5.607c9.333-.054,18.632,2.772,26.422,7.901c7.877,5.154,14.317,12.378,18.9,20.576c4.603,8.111,7.331,17.41,7.01,26.777-.156,3.312-.906,6.771-2.986,9.44-1.948,2.475-5.363,3.541-8.403,2.85-3.322-.599-5.962-2.811-8.651-4.681-7.521-5.022-15.554-9.343-24.074-12.422-7.696-2.708-15.909-4.525-24.103-3.668-4.418.687-8.661,2.294-12.558,4.457-6.503,3.58-12.222,8.427-17.395,13.713-1.077.916.658,1.676,1.203,2.319c15.866,14.545,28.463,32.335,38.926,51.055c2.231,3.639,4.145,7.458,6.147,11.223c10.103-.682,20.001-3.863,28.76-8.924c12.212-7.054,22.057-17.999,27.946-30.801c8.953-19.543,7.901-43.369-2.996-61.947-7.692-13.474-20.142-24.176-34.644-29.705-19.158-7.506-41.736-5.596-59.322,5.116Z" fill="#fff" stroke="#fff" stroke-width="0.5"/><path d="M970.283,59.702c17.585-10.712,40.163-12.621,59.322-5.115c14.502,5.529,26.953,16.231,34.644,29.705c10.897,18.579,11.949,42.404,2.996,61.947l-.273-.667c-4.082,4.891-8.637,9.401-13.82,13.123-13.011,9.543-29.076,14.17-45.02,15.349-1.257.175-2.674-.097-3.741.697-10.463-18.72-23.06-36.51-38.926-51.055-.546-.643-2.28-1.403-1.203-2.319c5.173-5.285,10.892-10.132,17.395-13.713c3.897-2.163,8.14-3.77,12.558-4.457c8.193-.857,16.406.96,24.103,3.668c8.52,3.079,16.552,7.399,24.074,12.422c2.689,1.871,5.329,4.082,8.651,4.681c3.04.692,6.454-.375,8.403-2.85c2.08-2.669,2.83-6.128,2.986-9.44.322-9.367-2.406-18.667-7.01-26.777-4.584-8.198-11.024-15.422-18.9-20.576-7.789-5.129-17.088-7.955-26.422-7.901-8.739-.073-17.351,2.187-25.345,5.607-8.359,3.678-16.241,8.442-23.499,13.98-9.64,7.482-18.34,17.195-21.419,29.281-.429-.185-.848-.365-1.252-.55.258-3.254,1.447-6.362,2.455-9.445c5.243-14.776,15.76-27.597,29.243-35.595Z" fill="#dededd" stroke="#dededd" stroke-width="0.5"/><path d="M797.306,100.05c12.524-2.177,25.262-1.627,37.908-1.598c23.884.351,48.079.463,71.402,6.25c15.354,3.765,30.026,10.512,42.579,20.162c13.708,10.439,25.009,23.728,34.605,37.961c10.741,15.836,19.266,33.027,27.401,50.305-9.816,11.837-23.119,20.362-37.323,25.978-18.545,7.424-38.434,10.707-58.231,12.582-25.613,2.27-51.372,1.866-77.043,1.047-23.387-.955-46.759-2.289-70.141-3.41-14.76-.765-29.534-1.12-44.314-1.286-10.58.015-21.185.156-31.697,1.481-35.993,4.131-70.511,17.814-100.717,37.62-15.651,10.278-30.294,22.111-43.544,35.346-1.174,1.096-2.319,2.241-3.2,3.59-17.76,7.658-35.107,16.387-51.348,26.914c3.278-10.108,8.685-19.363,14.341-28.302c9.991-15.525,21.526-29.992,33.534-43.992c22.841-26.251,47.08-51.382,73.643-73.901c14.672-12.275,30.041-23.913,46.993-32.876c7.136-3.639,14.56-7.015,22.5-8.398c3.834-.731,7.721-.239,11.584-.107c2.752-4.131,5.714-8.115,8.987-11.847c5.651.38,11.326.083,16.986.18c7.453.073,14.925-.244,22.364.395c11.749.755,23.45,2.148,35.131,3.639c12.417,1.651,24.819,3.483,37.133,5.836c4.53.809,8.939,2.216,13.518,2.762c10.327,1.369,20.727,2.109,31.113,2.874c11.876.784,23.747,1.539,35.628,2.138c2.104.054,4.214.107,6.323-.039-5.553-.058-11.058-.877-16.587-1.232-11.087-1.013-22.135-2.44-33.11-4.277-10.483-1.832-20.961-3.98-30.996-7.555-3.488-1.223-6.864-2.743-10.074-4.555-6.508-3.78-13.654-6.337-20.883-8.335-10.541-2.889-21.365-4.628-32.228-5.719-10.152-.984-20.372-1.388-30.557-.852-3.692.185-7.317.906-10.951,1.495c21.947-20.443,49.445-35.583,79.271-40.274Z" fill="#de292c" stroke="#de292c" stroke-width="0.5"/><path d="M728.987,138.83c10.186-.536,20.406-.132,30.557.852c10.863,1.091,21.687,2.83,32.228,5.719c7.229,1.997,14.375,4.555,20.883,8.335c3.21,1.812,6.586,3.332,10.074,4.555c10.035,3.575,20.513,5.724,30.996,7.555c10.975,1.836,22.023,3.264,33.11,4.277c5.529.356,11.033,1.174,16.587,1.232-2.109.146-4.219.093-6.323.039-11.881-.599-23.752-1.354-35.628-2.138-10.385-.765-20.786-1.505-31.113-2.874-4.579-.546-8.987-1.953-13.518-2.762-12.314-2.353-24.717-4.184-37.133-5.836-11.681-1.491-23.382-2.884-35.131-3.639-7.438-.638-14.911-.322-22.364-.395-5.66-.097-11.335.2-16.986-.18c4.014-4.652,8.32-9.051,12.811-13.245c3.634-.589,7.258-1.31,10.95-1.495Z" fill="#a92a2c" stroke="#a92a2c" stroke-width="0.5"/><path d="M1053.153,158.695c5.183-3.722,9.738-8.232,13.82-13.123l.273.667c-5.889,12.802-15.734,23.747-27.946,30.801-8.758,5.061-18.657,8.242-28.76,8.924-2.002-3.765-3.916-7.585-6.147-11.223c1.067-.794,2.484-.521,3.741-.697c15.942-1.179,32.008-5.807,45.019-15.349Z" fill="#c4c2c2" stroke="#c4c2c2" stroke-width="0.5"/><path d="M973.878,239.109c14.205-5.617,27.508-14.141,37.323-25.978c4.594,9.733,8.914,19.587,13.05,29.52c12.134,29.559,22.495,60.062,27.815,91.642c2.728,17.152,4.141,34.82,1.004,52.015-2.947-6.912-8.038-12.685-13.742-17.468-9.854-8.232-21.36-14.175-32.949-19.558-17.726-8.081-36.086-14.658-54.431-21.17-20.527-7.214-41.128-14.229-61.587-21.643-1.939-.745-3.999-1.057-6.011-1.525-69.483-15.252-141.514-20.917-212.283-12.202-43.588,5.339-86.62,16.143-127.076,33.339.882-1.349,2.026-2.494,3.2-3.59c13.25-13.235,27.893-25.067,43.544-35.346c30.206-19.806,64.724-33.49,100.717-37.62c10.512-1.325,21.117-1.466,31.697-1.481c14.779.166,29.554.521,44.314,1.286c23.382,1.12,46.754,2.455,70.141,3.41c25.671.818,51.43,1.223,77.043-1.047c19.797-1.877,39.687-5.16,58.231-12.584Z" fill="#a92a2c" stroke="#a92a2c" stroke-width="0.5"/><path d="M1006.379,349.281c11.589,5.383,23.095,11.326,32.949,19.558c5.704,4.784,10.795,10.556,13.742,17.468c2.095,4.784,2.859,10.044,2.947,15.237.18,3.22-.599,6.406-.375,9.621-.887,2.036-.974,4.292-1.569,6.415-4.628,18.866-15.325,36.417-30.694,48.425-5.388,3.887-11.253,7.2-17.629,9.143-9.138,2.884-19.095,2.932-28.321.404-7.039-1.841-13.386-5.495-20.099-8.189-9.314-3.931-18.822-7.375-28.399-10.605l.083.726c-.511-1.072-1.008-2.163-1.203-3.337-2.738-15.189-11.467-29.461-24.468-37.971-8.588-5.704-18.696-8.797-28.886-9.928-8.34-.901-16.762-.755-25.121-.307-11.126.701-22.335,2.436-32.691,6.708-7.463,3.098-14.443,7.794-19.251,14.375-23.932-3.04-48.147-4.9-72.25-3.01-2.932.2-5.855.477-8.778.697-.609.044-1.174.2-1.705.463-3.424-6.537-9.036-11.759-15.471-15.291-7.818-4.311-16.645-6.401-25.442-7.507-10.907-1.213-21.93-.969-32.842-.029-10.083.891-20.167,3.269-29.135,8.072-11.808,6.172-21.068,16.864-25.725,29.325-1.651,4.306-2.855,8.802-3.41,13.386-.015-.229-.039-.687-.049-.911-16.289,5.602-32.55,11.681-47.426,20.474-3.999,2.27-7.55,5.344-11.886,6.995-4.813,1.963-10.152,2.392-15.262,1.564-3.946-.843-7.765-2.231-11.282-4.214-3.342-1.871-6.372-4.223-9.246-6.732-.127.205-.375.614-.502.818.063-.253.19-.76.253-1.013-4.014-3.878-7.662-8.15-10.736-12.816c21.287-12.86,43.213-24.663,65.489-35.726c32.355-15.861,65.63-30.211,100.396-39.925c11.369-3.21,22.982-5.407,34.532-7.848c21.341-4.428,42.711-8.788,64.247-12.154c22.237-3.459,44.733-5.889,67.267-5.183c21.005.658,42.195,4.443,61.29,13.498c9.669,4.608,19.582,8.705,29.719,12.188c18.238,6.172,37.226,10.795,56.565,11.194c9.859.034,19.982-1.038,29.052-5.159c6.82-3.074,12.797-8.223,16.328-14.872c4.02-7.299,5.101-15.804,4.994-24.027Z" fill="#ccc" stroke="#ccc" stroke-width="0.5"/><path d="M491.85,618.192c.146.107.429.317.57.424.292,5.159,1.515,10.22,2.099,15.354-41.576-29.398-275.566,77.765-272.648,80.775c11.847,12.446,25.067,23.509,38.853,33.738c31.488,23.207,65.815,42.273,100.932,59.375c29.149,14.044,58.913,26.875,89.343,37.888-19.841,31.721-35.424,65.908-48.922,100.747-7.925,20.571-15.096,41.435-21.643,62.483-9.304,29.827-17.41,60.018-24.57,90.429-4.316,18.194-8.15,36.505-11.774,54.85c2.109.614,3.8,2.099,5.821,2.932c12.412,5.787,25.574,9.752,38.78,13.279c23.781,6.182,48.064,10.21,72.421,13.318c25.384,3.162,50.899,5.173,76.449,6.347c24.171,1.198,48.381,1.393,72.581,1.534c54.436-.073,108.857-1.836,163.201-4.9c47.675-2.733,95.306-6.42,142.781-11.637c23.416-2.596,46.798-5.563,70.073-9.221c21.448-3.4,42.857-7.268,63.867-12.807c7.784-2.085,15.5-4.443,22.997-7.409.034-10.132-1.642-20.177-3.717-30.065-1.744-8.018-3.926-15.934-6.333-23.772-2.596-8.242-5.319-16.455-8.486-24.493-8.856-2.124-17.22-6.488-23.806-12.802-9.221-8.871-14.818-21.078-17.01-33.573-1.666-10.463-.224-21.38,4.097-31.049c6.235-14.185,17.517-25.52,30.002-34.391c6.586-4.813,13.839-8.578,20.922-12.582c14.75-8.51,28.735-18.389,41.435-29.753c12.636-11.365,24.078-24.239,32.852-38.843c3.512-6.81,9.07-12.324,15.184-16.84c6.445-4.827,13.596-8.583,20.839-12.042-9.869-13.367-21.195-25.598-33.158-37.099-26.027-24.863-54.762-46.725-84.379-67.116-13.25-9.094-26.753-17.819-40.48-26.178-1.968,11.34-4.184,22.7-4.404,34.245-.433,11.506,1.437,22.963,4.282,34.079c3.478,13.576,8.047,26.84,12.758,40.027.058,8.5-.779,17.01-2.153,25.399-3.04,17.892-9.63,35.36-20.435,50.037-9.64,13.245-22.432,24.039-36.7,32.009-16.82,9.455-35.492,15.242-54.426,18.637-20.201,3.512-40.855,4.628-61.304,3.035-7.419,14.205-18.594,26.178-31.117,36.037-21.755,16.971-48.556,26.573-75.757,30.09-19.29,2.514-38.863,2.158-58.167-.024-26.266-3.005-52.648-9.372-75.65-22.817-11.594-6.795-22.179-15.403-30.806-25.73-14.804-17.502-23.382-39.754-25.774-62.444-.867-9.192-1.008-18.486.141-27.654.658-4.272,1.12-8.754,3.4-12.529c1.656-3.054,3.634-6.415,2.85-10.025-.955-4.228-4.218-7.38-7.331-10.156-7.073-5.894-15.101-10.483-23.153-14.877-6.966-3.877-14.239-7.151-21.263-10.912-13.099-7.204-23.314-19.227-28.677-33.144-3.273-8.223-5.037-16.971-5.88-25.759-1.125-13.552-.049-27.216,2.514-40.548c1.973-10.035,4.657-19.962,8.515-29.442c1.179-3.054,3.001-5.85,3.8-9.046c1.427-5.305,1.827-10.834,1.968-16.304.268-10.624-.57-21.248-1.666-31.804-.438-5.134-1.262-10.244-1.734-15.359-1.603-10.916-3.386-21.813-5.388-32.666-1.759-13.493-.224-27.737,6.143-39.9c1.544-3.605,5.159-5.617,8.388-7.502-7.326-2.674-14.341-7.068-18.569-13.795-6.167-9.46-6.557-21.38-4.998-32.233c1.291-7.843,3.361-15.612,6.557-22.895.127-.205.375-.614.502-.818c2.874,2.509,5.904,4.862,9.246,6.732-3.23,8.588-5.529,17.644-5.694,26.86-.034,5.914.94,12.168,4.535,17.035c3.278,4.521,8.442,7.229,13.693,8.778c2.158.482,3.366,2.479,4.915,3.868c1.164,1.028,2.075,2.406,3.434,3.186c8.948.132,17.653,2.806,25.696,6.605c13.469,6.391,25.642,15.262,36.783,25.116c2.557,2.635,5.967,4.131,8.929,6.235-9.616,4.204-20.82,4.871-30.786,1.491-7.497-2.509-14.351-6.713-20.294-11.891-1.89-1.841-4.029-3.405-5.821-5.334-2.801-3.234-5.719-6.367-8.193-9.859-3.22-3.751-5.451-8.184-8.281-12.207.365,4.267,1.247,8.476,1.778,12.724-.58,6.781-.239,13.6-.351,20.406-.068,1.544.088,3.093.497,4.594.828,23.898,3.171,47.874,9.08,71.096c4.068,15.831,9.747,31.439,18.613,45.254c7.774,12.12,18.477,22.719,31.751,28.633c10.059,4.715,21.268,5.88,32.223,6.586c20.25,1.335,40.801-.487,60.306-6.211c15.461-4.535,30.241-11.535,43.33-20.961c1.603-1.15,3.132-2.397,4.764-3.502c2.747,8.252,6.946,16.129,12.933,22.495c5.495,5.85,12.782,10.317,20.849,11.321c8.417,1.125,16.996-1.875,23.528-7.146c10.342-8.34,16.465-20.873,19.412-33.616c2.138,1.481,3.863,3.459,5.86,5.12c11.813,10.361,25.174,19.037,39.705,25.077c13.795,5.748,28.579,9.124,43.51,9.884c13.659.76,27.396-.565,40.762-3.434c3.025-.721,5.831-2.129,8.632-3.454c11.925-5.86,21.979-15.052,29.861-25.662c8.768-11.788,15.096-25.213,19.923-39.038c5.504-15.885,9.041-32.389,11.389-49.019c3.01-22.223,3.994-44.723,2.893-67.121-1.232,1.788-2.285,3.692-3.439,5.534.282-2.382.901-4.715.945-7.122-2.056,3.488-3.551,7.283-5.855,10.634-4.827,7.054-10.994,13.459-18.706,17.337-5.48,2.859-11.598,4.326-17.731,4.847-5.354.838-10.731-.2-16.017-1.008c10.186-8.218,20.922-15.802,32.311-22.261c9.626-5.383,19.787-10.064,30.63-12.358-.575-1.948-1.164-3.897-1.637-5.865c3.527-2.333,7.385-4.204,10.556-7.044c6.333-5.427,11.657-12.597,13.113-20.971c1.539-8.729-1.856-17.497-6.62-24.683c3.249-2.28,5.909-5.368,7.682-8.914c4.896,6.878,8.875,14.628,10.181,23.046c1.262,7.346.156,15.033-2.894,21.823-3.994,8.948-10.853,16.421-18.832,22.008.122.891,1.13.867,1.793,1.184c5.261,1.797,9.299,6.021,12.061,10.722c3.921,6.727,5.841,14.394,7.214,21.998c2.372,14.55,2.445,29.359,1.914,44.055-1.344,29.943-5.563,59.673-10.536,89.207c17.039,10.04,33.577,20.917,49.833,32.179c30.104,21.039,59.317,43.578,85.524,69.371c11.365,11.331,22.179,23.285,31.439,36.417c2.08-.848,4.204-1.593,6.357-2.246c12.168-1.247,25.082-.351,36.028,5.582c8.607,4.574,15.223,12.431,18.9,21.404c4.141,9.869,5.831,20.737,4.754,31.39-.21,1.992-.482,3.985-.794,5.972-.711,3.692-1.559,7.365-2.718,10.951-3.454,10.702-8.593,20.824-14.789,30.192c2.694,2.143,5.5,4.155,8.213,6.279.833.638,1.661,1.291,2.504,1.948.74.58,1.491,1.159,2.246,1.759c13.995,11.009,27.557,22.564,40.597,34.688c14.502,13.596,28.443,27.912,40.358,43.87c5.845,7.94,11.199,16.328,15.037,25.443c4.452,10.512,6.737,22.685,2.723,33.709-.507,1.349-1.081,2.679-1.719,3.975-.653,1.271-1.335,2.533-2.056,3.77-4.706,7.94-11.783,14.497-20.206,18.326-10.264,4.749-21.921,5.626-33.042,4.335-18.525-2.28-36.125-9.358-52.434-18.214-3.127-1.734-6.24-3.493-9.246-5.422-1.091,8.315-2.533,17.103-7.779,23.932-3.391,4.418-8.822,7.351-14.448,7.229-8.237.127-16.616-2.967-22.31-9.012-6.133-6.435-9.051-15.184-10.6-23.762-.813-4.102-.867-8.335-2.046-12.358-2.28-8.33-5.558-16.338-8.797-24.327-3.848-9.314-8.008-18.496-12.183-27.669-13.089,11.389-27.756,21.107-43.763,27.893-13.021,5.475-27.104,8.968-41.303,8.408c2.777,7.57,5.324,15.227,7.628,22.953.453,1.544.906,3.093,1.354,4.652.18.726.4,1.471.614,2.216c3.853,13.79,6.61,27.932,7.487,42.234c9.674-3.483,20.634-3.785,30.304-.083c8.042,3.025,14.852,8.724,20.079,15.471c6.362,8.252,10.692,17.892,13.864,27.771c5.003,15.695,7.151,32.16,8.018,48.566.336,9.684.356,19.392-.321,29.067-.697,8.169-1.656,16.333-3.376,24.361-1.973,8.705-4.506,17.498-9.548,24.975-8.836,13.406-21.643,23.621-35.019,32.214-16.216,10.273-33.821,18.184-51.84,24.721-45.19,16.172-92.967,23.874-140.666,27.722-5.022,7.156-9.859,14.453-14.828,21.653.244,7.049.589,14.097.969,21.141.019.877.024,1.768.073,2.674.658,14.175,1.301,28.346,1.944,42.521.434,11.452,1.159,22.905,1.476,34.366.75.594,1.505,1.198,2.265,1.832c13.976,11.545,24.941,27.289,28.886,45.147c1.695,7.448,1.968,15.179,1.237,22.768-.443,3.532-1.091,7.054-2.163,10.458-.862,2.572-1.836,5.125-3.108,7.536-3.493,6.742-8.763,12.48-15.018,16.757-7.088,4.881-15.223,8.042-23.518,10.196-13.191,3.38-26.831,4.54-40.392,5.139-11.194.541-22.408.507-33.616.502-12.992-.005-25.993-.317-38.95-1.32-11.779-.964-23.567-2.567-34.932-5.894-8.559-2.538-16.932-6.143-24.03-11.637-7.321-5.617-13.04-13.386-15.861-22.198-1.281-3.502-1.656-7.224-2.494-10.819-.96,8.305-3.273,16.64-8.062,23.606-4.477,6.693-10.839,11.974-17.907,15.758-8.637,4.647-18.209,7.244-27.815,8.978-13.162,2.328-26.538,2.962-39.871,3.361-24.259.287-48.61.584-72.761-2.065-11.53-1.432-23.08-3.566-33.909-7.891-11.316-4.413-21.779-11.954-27.863-22.661-1.315-2.431-2.475-4.94-3.371-7.546-.828-2.353-1.418-4.779-1.895-7.214-2.148-12.446-.521-25.452,4.233-37.133c6.328-15.705,17.902-28.891,31.595-38.658c5.203-3.751,10.731-7.029,16.484-9.859.95-.468,1.895-.945,2.825-1.452-1.744-24.931-2.518-49.925-3.254-74.9-.005-1.403-.073-2.801-.102-4.18-.239-6.245-.244-12.5-.511-18.735-.935-3.035-2.241-5.948-3.278-8.943-44.606-4.749-89.217-11.642-132.229-24.692-20.678-6.313-40.982-14.151-59.936-24.629-14.429-8.037-28.126-17.619-39.701-29.461-2.971-2.699-4.681-6.396-6.815-9.723-5.987-10.176-10.999-20.951-14.458-32.252-1.656-5.48-2.918-11.072-3.79-16.723-.185-1.476-.351-2.932-.541-4.389-1.228-12.251-.346-24.775,3.259-36.578c6.333-21.268,20.766-39.778,39.267-51.893c8.817-5.743,18.618-10.229,29.042-12.017c11.686-60.856,27.011-121.074,47.076-179.729c11.501-33.285,24.546-66.103,40.514-97.512.487-.974.979-1.934,1.476-2.889.628-1.237,1.257-2.47,1.914-3.688c3.424-6.566,7.029-13.04,10.731-19.456-37.971-14.56-75.1-31.39-110.923-50.651-18.321-9.913-36.276-20.532-53.53-32.213m930.457,81.103c-2.489.219-4.788,1.237-7.093,2.114-8.12,3.215-16.177,6.747-23.523,11.516-5.743,3.629-11.145,8.042-15.042,13.659-6.844,12.178-15.549,23.25-25.214,33.309-13.893,14.438-29.768,26.909-46.778,37.465-6.498,4.17-13.362,7.721-20.026,11.613-8.14,4.935-15.958,10.556-22.398,17.614-3.493,3.546-6.596,7.492-9.041,11.837-5.422,8.909-7.857,19.728-6.177,30.065c1.666,9.445,5.636,18.647,12.149,25.769c2.708,3.044,6.128,5.344,9.582,7.463c10.463,5.602,22.822,6.527,34.391,4.715c9.786-1.427,19.158-4.842,28.122-8.929c8.69-4.082,16.815-9.236,24.619-14.809c7.166-5.251,13.737-11.248,20.513-16.986c6.664-5.826,13.333-11.652,19.855-17.639c2.528-2.708,5.529-4.9,8.067-7.594c4.501-4.409,8.939-8.885,13.386-13.347c2.387-2.484,4.964-4.788,7.136-7.473c9.406-10.21,18.267-20.995,25.798-32.681c5.095-8.14,9.757-16.65,12.685-25.832c3.882-11.36,5.081-23.947,1.51-35.55-2.104-7.813-6.26-15.364-13.045-20.021-8.496-5.99-19.402-6.857-29.476-6.278M592.14,914.407c.37,1.145,1.15,2.099,1.812,3.098c6.859,10.483,14.39,20.542,22.773,29.856c15.719,17.546,34.854,32.623,57.12,40.84c14.131,5.319,29.364,7.599,44.435,6.893c23.596-1.081,46.389-9.158,66.901-20.566c17.483-9.747,33.592-21.877,48.167-35.579c1.125-1.135,2.489-2.08,3.278-3.502-1.666.823-2.874,2.275-4.335,3.386-7.589,6.24-15.734,11.808-24.298,16.616-18.652,10.468-39.608,16.85-60.963,18.267-28.278,2.012-56.623-4.257-82.67-15.033-26.172-10.903-50.519-26.067-72.22-44.276m587.976,94.078c-6.172,5.748-12.665,11.16-18.842,16.893c1.174,2.163,2.134,4.433,3.181,6.669c4.248,9.25,8.354,18.574,12.168,28.014c3.361,8.53,6.761,17.113,8.656,26.11.75,4.983,1.164,10.044,2.626,14.901c1.266,4.394,3.161,8.744,6.352,12.1c2.913,3.03,6.961,4.876,11.136,5.271c1.91.234,3.98.463,5.763-.468c2.338-1.203,3.751-3.58,4.784-5.909c1.89-4.516,2.66-9.392,3.249-14.219.697-6.79.833-13.635.565-20.454c6.001,4.827,12.383,9.168,18.983,13.142c14.77,8.768,30.669,16.007,47.568,19.49c10.746,2.08,22.305,2.621,32.637-1.573c7.711-3.025,14.044-9.075,17.848-16.387c2.713-4.779,3.717-10.454,2.986-15.885-.619-5.461-2.421-10.712-4.691-15.685-3.717-8.037-8.656-15.437-13.961-22.5-11.394-14.916-24.585-28.356-38.278-41.157-13.493-12.534-27.591-24.415-42.102-35.755-3.176-2.479-6.406-4.891-9.587-7.356-14.847,20.143-32.637,37.889-51.041,54.758M872.693,1398.339c-51.859,2.64-103.742,5.129-155.665,5.743c3.463,17.595,7.492,35.092,10.98,52.687c2.611.341,5.266.102,7.891.365c26.451.887,52.897,1.866,79.352,2.742c25.413.96,50.841,1.69,76.254,2.723-.945-15.637-1.812-31.273-2.869-46.9c4.043-6.069,8.413-11.954,12.198-18.184.112-.058.341-.18.458-.244l-.156-.205c-.804-.166-1.783-.273-2.45.253l-.083-.244c-8.636.324-17.273.855-25.91,1.264m-341.804.068c7.039,18.52,13.98,37.075,21.01,55.595c47.84,2.411,95.685,4.72,143.521,7.136c4.141-18.964,8.257-37.932,12.422-56.886-59.025.614-118.143-.447-176.953-5.845m181.322,39.16c-2.665,11.793-5.081,23.65-7.809,35.428-2.689-.146-5.373-.346-8.057-.453-50.817-2.494-101.628-5.047-152.445-7.526-3.312-8.783-6.639-17.566-9.923-26.353-.146,4.374.258,8.754.351,13.133.244,6.81.443,13.63.833,20.435.287,9.099.887,18.189,1.364,27.289c30.47-10.707,64.388-11.286,95.223-1.71c17.809,5.602,34.659,14.882,48.021,28.024c11.915,11.808,20.956,27.094,23.358,43.856.555-.667.507-1.603.716-2.372c3.191-16.835,6.649-33.621,9.762-50.476c1.213,7.56,1.846,15.208,2.952,22.783c11.326-16.923,28.472-29.286,47.032-37.231c21.555-9.177,45.371-12.577,68.679-10.951c21.58,1.598,43.062,7.585,61.631,18.861-.351-9.177-1.057-18.355-1.081-27.532-.117-.029-.346-.083-.463-.112l.239-.117c-.083-2.864-.278-5.714-.317-8.564-57.826-2.09-115.653-4.033-173.484-6.07-1.953-9.645-4.092-19.246-6.05-28.886-.196-.516-.001-1.174-.532-1.456m-131.689,64.997c-23.358.96-46.808,7.638-66.195,20.927-13.357,9.187-24.756,21.945-30.172,37.406-3.493,10.122-4.603,21.341-1.773,31.76c2.173,8.072,7.599,15.023,14.497,19.651c8.286,5.617,18.028,8.583,27.742,10.605c12.29,2.465,24.829,3.463,37.338,3.955c12.972.565,25.959.521,38.941.448c11.209-.146,22.432-.463,33.597-1.539c10.916-1.115,21.916-2.83,32.17-6.893c7.823-3.118,15.257-8.004,19.889-15.189c5.246-7.984,6.605-17.892,5.982-27.255-.726-10.351-4.292-20.406-9.874-29.12-8.827-13.795-22.101-24.273-36.641-31.546-20.194-10.01-43.054-14.209-65.501-13.21m233.872.014c-23.09,1.028-46.252,7.628-65.464,20.703-13.396,9.153-24.872,21.852-30.377,37.304-3.463,9.859-4.642,20.756-2.173,30.991c1.836,7.701,6.547,14.57,12.85,19.319c7.209,5.514,15.9,8.676,24.619,10.877c13.391,3.254,27.181,4.423,40.918,5.037c13.795.623,27.61.594,41.415.497c12.534-.19,25.082-.585,37.538-2.061c10.098-1.305,20.269-3.195,29.622-7.38c7.029-3.147,13.571-7.891,17.717-14.487c5.061-7.926,6.391-17.668,5.777-26.894-.74-10.717-4.525-21.112-10.449-30.036-8.773-13.303-21.706-23.44-35.838-30.557-20.38-10.161-43.484-14.375-66.155-13.313Z" fill="#fff" stroke="#fff" stroke-width="0.5"/><g id="eo49HmCuvXy11" transform="matrix(.990584-.136903 0.136903 0.990584-118.30478 109.380765)"><path d="M346.951,559.265c4.033-6.825,7.925-13.776,10.873-21.151c3.907,2.665,7.813,5.329,11.71,8.013-2.08,8.866-7.935,16.114-13.854,22.768-12.003,12.831-26.061,23.484-39.988,34.118-5.899,4.745-12.383,8.963-17.117,14.964-6.031,7.409-10.858,15.69-15.437,24.039-7.122,13.06-13.294,26.612-19.144,40.28-1.325,3.088-2.621,6.24-4.676,8.934-4.847,6.454-11.511,11.272-18.501,15.164-5.992,3.473-12.5,5.889-18.944,8.349-2.918-3.01-5.675-6.167-8.408-9.343c11.043-4.491,19.685-13.138,26.977-22.325c6.776-8.534,12.66-17.731,18.248-27.069c4.287-7.107,8.125-14.472,12.616-21.453c9.367-14.857,20.781-28.502,34.328-39.72c7.633-6.435,15.953-11.969,23.957-17.907c6.639-4.932,13.059-10.5,17.36-17.661Z" fill="#c22527" stroke="#c22527" stroke-width="0.5"/><path d="M183.722,407.152c2.372-3.429,6.289-5.651,10.429-6.055c3.356-.706,6.635.926,9.27,2.859c4.369,3.278,7.658,7.76,10.541,12.344c3.853,6.269,6.99,12.996,9.138,20.04c3.595,11.462,7.848,22.836,14.219,33.081c3.541,5.651,7.643,11.014,12.602,15.5-14.609,11.988-28.696,24.619-42.024,38.02-18.603,18.72-35.998,38.926-49.355,61.782-17.205-6.074-33.665-14.38-48.513-25.004-14.18-10.156-26.86-22.573-36.461-37.177-11.857-17.809-18.71-38.809-20.084-60.13-.273-3.877-.706-7.828.141-11.667c1.305-6.849,5.675-12.772,11.184-16.903c7.497-5.641,16.679-8.554,25.852-10.035c17.054-2.587,34.586-.297,50.919,4.988c14.774,4.774,28.604,12.31,40.84,21.847-1.515-6.104-2.645-12.358-2.996-18.623.984-2.251.546-4.74.653-7.112.073-1.276-.156-2.528-.658-3.692.293-4.896,1.467-9.962,4.303-14.063Z" fill="#de292c" stroke="#de292c" stroke-width="0.5"/><path d="M301.98,470.926c14.015-.95,28.209,4.691,37.991,14.735c7.044,6.513,11.691,15.802,11.959,25.462.414,9.684-2.825,19.061-6.815,27.746-2.392,5.1-5.212,9.991-8.052,14.852-4.779,7.667-12.5,12.641-19.563,17.965-8.378,5.958-16.733,12.008-24.332,18.949-3.01,2.845-6.24,5.48-8.861,8.705-12.646,13.147-22.905,28.424-31.566,44.435-8.491,14.331-17.117,28.828-28.745,40.879-2.918,2.635-5.836,5.315-9.216,7.351-7.185,4.691-16.172,5.66-24.541,4.832-9.932-.219-20.581-.857-29.067-6.625-7.054-4.73-10.712-13.07-11.93-21.234-1.461-10.244-.219-20.639,1.617-30.752c2.216-10.346,4.74-20.688,8.856-30.465c7.93-18.613,19.641-35.331,32.496-50.856c5.621-6.854,11.691-13.308,17.663-19.841c6.513-6.464,12.826-13.147,19.685-19.241c15.237-14.258,31.337-27.62,48.074-40.09c7.469-4.045,15.886-6.228,24.347-6.807Z" fill="#f2f2f2" stroke="#f2f2f2" stroke-width="0.5"/><path d="M369.534,546.128c41.902,28.935,83.41,58.445,124.986,87.843l.034.205c12.336996,6.675469-1.527303,110.31616-12.273907,109.517482-2.562,13.333-30.057745,76.790043-120.620093,64.167518-35.117-17.103-69.444-36.169-100.932-59.375-13.786-10.23-27.006-21.292-38.853-33.738c6.445-2.46,12.953-4.876,18.944-8.349c6.99-3.892,13.654-8.71,18.501-15.164c2.056-2.694,3.351-5.846,4.676-8.934c5.85-13.669,12.022-27.22,19.144-40.28c4.579-8.349,9.406-16.63,15.437-24.039c4.735-6.001,11.218-10.22,17.117-14.964c13.927-10.634,27.985-21.287,39.988-34.118c5.917-6.658,11.772-13.907,13.852-22.772Z" fill="#de292c" stroke="#de292c" stroke-width="0.5"/></g><path d="M640.906,402.348c10.912-.94,21.935-1.184,32.842.029c8.797,1.106,17.624,3.196,25.442,7.507c6.435,3.532,12.047,8.754,15.471,15.291c2.25,4.472,4.491,9.44,3.868,14.56-.843,3.186-4.043,4.935-7.107,5.363-6.747,1.018-13.557-.448-20.094-2.036-2.372-.458-4.637-1.705-7.102-1.403-12.354.662-24.687,1.676-36.978,3.098-11.652,1.374-23.294,3.049-34.703,5.836-6.932,1.788-14.024,3.765-19.943,7.945-2.762,1.724-5.553,3.644-8.797,4.277-1.106.273-2.577-.102-2.767-1.388-.526-2.918,1.617-5.422,1.598-8.296.555-4.584,1.758-9.08,3.41-13.386c4.657-12.461,13.917-23.153,25.725-29.325c8.968-4.803,19.051-7.18,29.135-8.072Z" fill="#fff" stroke="#fff" stroke-width="0.5"/><path d="M849.336,405.943c8.359-.448,16.781-.594,25.121.307c10.191,1.13,20.298,4.223,28.886,9.928c13.001,8.51,21.731,22.783,24.468,37.971.195,1.174.692,2.265,1.203,3.337.546,1.53,1.393,3.454.21,4.905-1.018.736-2.367.482-3.493.239-5.295-1.388-9.523-5.168-14.716-6.795-9.835-3.371-20.235-4.535-30.508-5.67-18.218-1.671-36.529-2.138-54.811-1.953-1.13-.039-2.275-.024-3.322.399-5.797,2.163-11.769,4.004-17.931,4.764-3.873.307-8.247.677-11.579-1.72-2.548-1.88-2.879-5.417-2.294-8.301c1.008-5.86,3.269-11.54,6.825-16.328c4.808-6.581,11.788-11.277,19.251-14.375c10.355-4.272,21.564-6.006,32.69-6.708Z" fill="#fff" stroke="#fff" stroke-width="0.5"/><path d="M179.42,421.215c.502,1.164.731,2.416.658,3.692-.107,2.372.331,4.861-.653,7.112-.307-3.59-.351-7.219-.005-10.804Z" fill="#db1317" stroke="#db1317" stroke-width="0.5"/><path d="M725.144,424.016c24.103-1.89,48.318-.029,72.25,3.01-3.556,4.788-5.816,10.468-6.825,16.328-10.083-1.573-20.235-2.694-30.372-3.882-13.844-1.549-27.82-.95-41.669.263.624-5.12-1.617-10.088-3.868-14.56.531-.263,1.096-.419,1.705-.463c2.924-.219,5.846-.497,8.779-.696Z" fill="#d4996b" stroke="#d4996b" stroke-width="0.5"/><path d="M718.529,439.735c13.849-1.213,27.824-1.812,41.669-.263c10.137,1.189,20.289,2.309,30.372,3.882-.584,2.884-.253,6.42,2.294,8.301c3.332,2.397,7.706,2.026,11.579,1.72c6.162-.76,12.134-2.601,17.931-4.764c1.047-.424,2.192-.438,3.322-.399c3.999,1.164,8.208,1.379,12.285,2.221c22.87,3.795,45.668,8.047,68.304,13.06c16.733,3.809,33.519,7.701,49.657,13.63c8.076,2.816,16.397,5.032,24.892,6.143c6.605.882,13.362,1.125,19.953-.02c4.847-.784,9.611-2.436,13.659-5.261c4.764,7.185,8.159,15.953,6.62,24.683-1.456,8.374-6.781,15.544-13.113,20.971-3.171,2.84-7.029,4.71-10.556,7.044.472,1.968,1.062,3.917,1.637,5.865-10.843,2.294-21.005,6.976-30.63,12.358-11.389,6.459-22.125,14.044-32.311,22.261-14.219-2.669-27.435-9.236-39.286-17.381-5.811-3.887-10.863-8.856-17.093-12.11-8.51-4.691-18.223-7.088-27.927-7.127-14.429-.156-28.755,3.941-41.401,10.775c2.864,9.46,1.763,19.826-1.661,28.994-4.93,4.915-10.897,8.637-17.229,11.491-10.215,4.618-21.141,7.638-32.267,8.983-11.004,1.31-22.354.867-32.988-2.436-7.585-2.309-14.682-6.279-20.449-11.725-7.76-7.273-12.894-16.991-15.695-27.172-.58-2.07-.779-4.257-1.783-6.187-.248-2.942-.136-5.899-.117-8.841-6.196-1.924-12.577-3.58-19.11-3.585-7.024-.054-13.898,1.905-20.313,4.633-8.184,3.488-15.851,8.038-23.406,12.694-8.047,5.017-15.934,10.293-23.772,15.622-3.955,2.704-8.096,5.193-12.573,6.927-2.962-2.104-6.372-3.6-8.929-6.235-11.141-9.854-23.314-18.725-36.783-25.116-8.042-3.799-16.747-6.474-25.696-6.605-1.359-.779-2.27-2.158-3.434-3.186-1.549-1.388-2.757-3.385-4.915-3.868-5.251-1.549-10.415-4.257-13.693-8.778-3.595-4.866-4.569-11.121-4.535-17.035.166-9.216,2.465-18.272,5.694-26.86c3.517,1.983,7.336,3.371,11.282,4.214c3.22,2.733,7.044,4.813,11.072,6.074c3.629,1.228,7.219-.619,10.668-1.573c50.773-16.202,101.926-31.819,154.467-41.215c2.372-.468,4.822-.614,7.107-1.476c6.537,1.588,13.347,3.054,20.094,2.036c3.064-.429,6.264-2.178,7.107-5.364m-65.757,23.08c-6.391,1.145-12.48,3.985-17.395,8.237-6.571,5.612-10.926,13.863-11.413,22.529-.078,1.418-.336,3.196,1.013,4.141c1.642,1.549,4.71.102,4.55-2.153.122-3.863.891-7.736,2.611-11.218c3.717-7.755,11.184-13.425,19.485-15.471c9.314-2.406,19.733-.39,27.313,5.597c6.289,4.861,10.532,12.553,10.527,20.586-.117,1.495.94,3.064,2.475,3.273c1.642.292,3.312-1.164,3.239-2.83.097-10.259-5.344-20.147-13.571-26.134-8.161-6.055-18.868-8.379-28.834-6.557m188.999-.005c-8.208,1.437-15.948,5.729-21.312,12.134-4.823,5.699-7.701,13.113-7.599,20.61-.141,2.255,2.928,3.731,4.584,2.163c1.476-1.067.906-3.064,1.189-4.598.77-9.319,7.068-17.59,15.301-21.75c10.054-5.217,22.914-4.525,32.272,1.895c6.64,4.428,11.418,11.793,12.11,19.811.18,1.52-.268,3.42,1.081,4.54c1.486,1.539,4.365.526,4.681-1.559.36-10.663-5.402-21-14.053-27.055-8.078-5.772-18.517-7.964-28.254-6.191m151.787,22.306c-.799,13.04-1.549,26.085-2.353,39.131c4.37-2.246,8.52-4.91,12.48-7.813c4.131-3.098,8.179-6.537,10.916-10.98c1.671-2.718,2.562-6.264,1.077-9.255-1.807-3.649-5.587-5.685-9.143-7.292-4.17-1.736-8.539-3.002-12.977-3.791m-491.443,8.1c-2.942,1.968-5.548,4.993-5.748,8.676-.224,4.482,2.265,8.515,4.959,11.891c4.55,5.495,10.195,9.986,16.143,13.883-.643-13.289-1.276-26.577-1.987-39.861-4.672,1.164-9.334,2.732-13.367,5.411m154.539-5.158c-7.472,1.276-12.797,9.387-10.941,16.747c1.325,6.401,7.599,11.306,14.146,10.946c6.537-.107,12.461-5.412,13.342-11.881.867-5.344-1.734-11.038-6.328-13.888-2.985-1.958-6.736-2.582-10.219-1.924m190.046.048c-3.848.809-7.278,3.351-9.192,6.781-2.182,3.756-2.387,8.578-.624,12.534c2.455,5.826,9.197,9.392,15.393,8.096c6.074-1.067,10.975-6.562,11.345-12.714.463-5.363-2.548-10.785-7.278-13.313-2.907-1.632-6.404-2.036-9.644-1.384m-56.613,43.652c-1.5.887-2.25,2.596-2.611,4.228-1.822,9.051-6.956,17.58-14.619,22.846-7.585,5.388-17.152,7.239-26.31,6.966-4.15-.974-8.578-2.967-12.821-1.242-3.04,1.257-3.814,5.008-3.273,7.945.399,1.822.891,3.77,2.124,5.227c2.255,1.724,5.056,2.538,7.706,3.449c10.517,2.952,21.891,3.921,32.53,1.033c7.93-2.09,15.164-7.292,19.051-14.594c4.18-7.526,5.125-16.358,4.91-24.829.068-2.928-1.559-5.466-2.83-7.974-.837-1.394-2.03-3.163-3.857-3.055Z" fill="#f8ba8a" stroke="#f8ba8a" stroke-width="0.5"/><path d="M647.248,444.757c12.29-1.422,24.624-2.436,36.978-3.098c2.465-.302,4.73.945,7.102,1.403-2.285.862-4.735,1.008-7.107,1.476-52.541,9.397-103.694,25.014-154.467,41.215-3.449.955-7.039,2.801-10.668,1.573-4.029-1.262-7.852-3.342-11.072-6.074c5.11.828,10.449.399,15.262-1.564c4.335-1.651,7.886-4.725,11.886-6.995c14.877-8.793,31.137-14.872,47.426-20.474.01.224.034.682.049.911.02,2.874-2.124,5.378-1.598,8.296.19,1.286,1.661,1.661,2.767,1.388c3.244-.633,6.035-2.552,8.797-4.277c5.919-4.18,13.011-6.157,19.943-7.945c11.408-2.785,23.05-4.461,34.702-5.835Z" fill="#d4996b" stroke="#d4996b" stroke-width="0.5"/><path d="M825.696,448.211c18.282-.185,36.593.283,54.811,1.953c10.273,1.135,20.673,2.299,30.508,5.67c5.193,1.627,9.421,5.407,14.716,6.795c1.125.244,2.475.497,3.493-.239c1.184-1.452.336-3.376-.21-4.905l-.083-.726c9.577,3.23,19.085,6.674,28.399,10.605c6.713,2.694,13.06,6.347,20.099,8.189c9.226,2.528,19.183,2.479,28.321-.404c6.376-1.944,12.241-5.256,17.629-9.143-.36,1.042-.74,2.085-1.252,3.064-1.773,3.546-4.433,6.635-7.682,8.914-4.048,2.825-8.812,4.477-13.659,5.261-6.591,1.145-13.347.901-19.953.02-8.495-1.111-16.815-3.327-24.892-6.143-16.138-5.928-32.925-9.82-49.657-13.63-22.637-5.012-45.434-9.265-68.304-13.06-4.076-.842-8.285-1.057-12.284-2.221Z" fill="#d4996b" stroke="#d4996b" stroke-width="0.5"/><path d="M652.772,462.815c9.966-1.822,20.674.502,28.833,6.557c8.227,5.987,13.669,15.875,13.571,26.134.073,1.666-1.598,3.122-3.239,2.83-1.534-.209-2.592-1.778-2.475-3.273.005-8.033-4.238-15.724-10.527-20.586-7.58-5.987-17.999-8.003-27.313-5.597-8.301,2.046-15.768,7.716-19.485,15.471-1.72,3.483-2.489,7.356-2.611,11.218.161,2.255-2.908,3.702-4.55,2.153-1.349-.945-1.091-2.723-1.013-4.141.487-8.666,4.842-16.918,11.413-22.529c4.916-4.252,11.005-7.092,17.396-8.237Z" stroke="#000" stroke-width="0.5"/><path d="M841.771,462.81c9.738-1.773,20.177.419,28.253,6.191c8.651,6.055,14.414,16.392,14.053,27.055-.317,2.085-3.195,3.098-4.681,1.559-1.349-1.12-.901-3.02-1.081-4.54-.692-8.018-5.47-15.383-12.11-19.811-9.358-6.42-22.218-7.112-32.272-1.895-8.232,4.16-14.531,12.431-15.301,21.75-.283,1.534.287,3.532-1.189,4.598-1.656,1.569-4.725.093-4.584-2.163-.102-7.497,2.777-14.911,7.599-20.61c5.364-6.405,13.105-10.697,21.313-12.134Z" stroke="#000" stroke-width="0.5"/><path d="M993.558,485.116c4.438.789,8.807,2.056,12.977,3.79c3.556,1.608,7.336,3.644,9.143,7.292c1.486,2.991.594,6.537-1.077,9.255-2.738,4.443-6.786,7.882-10.916,10.98-3.96,2.903-8.111,5.568-12.48,7.813.804-13.045,1.554-26.09,2.353-39.13Z" fill="#d88957" stroke="#d88957" stroke-width="0.5"/><path d="M502.115,493.216c4.033-2.679,8.695-4.248,13.367-5.412.711,13.284,1.344,26.573,1.987,39.861-5.948-3.897-11.593-8.388-16.143-13.883-2.694-3.376-5.183-7.409-4.959-11.891.199-3.682,2.805-6.707,5.748-8.675Z" fill="#d88957" stroke="#d88957" stroke-width="0.5"/><path d="M656.654,488.058c3.483-.658,7.234-.034,10.22,1.924c4.594,2.85,7.195,8.544,6.328,13.888-.882,6.469-6.805,11.774-13.342,11.881-6.547.36-12.821-4.545-14.146-10.946-1.856-7.36,3.468-15.471,10.94-16.747Z" stroke="#000" stroke-width="0.5"/><path d="M846.7,488.106c3.239-.653,6.737-.248,9.645,1.383c4.73,2.528,7.74,7.95,7.278,13.313-.37,6.152-5.271,11.647-11.345,12.714-6.196,1.296-12.938-2.27-15.393-8.096-1.763-3.955-1.559-8.778.624-12.534c1.914-3.428,5.343-5.971,9.191-6.78Z" stroke="#000" stroke-width="0.5"/><path d="M361.473,526.833c.341-1.193.609-2.406.843-3.619c1.593.93,2.085,2.762,2.387,4.472-.17.229-.521.687-.692.916-.863-.581-1.71-1.17-2.538-1.769Z" opacity="0.11" stroke="#000" stroke-width="0.5"/><path d="M790.087,531.758c1.827-.107,3.02,1.661,3.858,3.054c1.271,2.509,2.898,5.047,2.83,7.974.214,8.471-.731,17.303-4.91,24.829-3.887,7.302-11.121,12.505-19.051,14.594-10.639,2.889-22.013,1.919-32.53-1.033-2.65-.911-5.451-1.724-7.706-3.449-1.232-1.456-1.724-3.405-2.124-5.227-.541-2.937.234-6.688,3.273-7.945c4.243-1.724,8.671.268,12.821,1.242c9.158.273,18.725-1.578,26.31-6.966c7.662-5.266,12.797-13.795,14.619-22.846.359-1.631,1.11-3.341,2.61-4.227Z" fill="#f69e78" stroke="#f69e78" stroke-width="0.5"/><path d="M810.385,545.324c12.646-6.834,26.972-10.931,41.401-10.775c9.703.039,19.417,2.436,27.927,7.127c6.23,3.254,11.282,8.223,17.093,12.11c11.852,8.145,25.067,14.711,39.286,17.381c5.285.809,10.663,1.846,16.017,1.008c6.133-.521,12.251-1.987,17.731-4.847c7.711-3.878,13.878-10.283,18.706-17.337c2.304-3.351,3.8-7.146,5.855-10.634-.044,2.406-.663,4.74-.945,7.122-1.939,13.669-4.905,27.186-8.359,40.548-4.058,15.33-9.031,30.44-15.359,44.986-6.094,13.976-13.459,27.483-22.836,39.545-8.096,10.371-17.848,19.646-29.393,26.085-13.074,7.385-28.424,10.488-43.354,9.104-16.431-1.408-32.15-7.307-46.632-14.964-10.892-5.777-21.165-12.651-31.035-20.026-3.727-2.869-7.424-5.768-11.058-8.749-9.747-8.072-19.1-16.606-28.107-25.491-9.952,10.4-20.863,19.85-32.165,28.755-3.77,2.903-7.599,5.733-11.467,8.51-14.809,10.337-30.548,19.539-47.504,25.871-17.439,6.527-36.593,9.908-55.059,6.255-14.955-2.879-28.706-10.688-39.52-21.312-12.188-11.813-21.17-26.514-28.282-41.824-11.896-25.988-18.857-53.925-23.908-81.968-.585-2.967-.872-5.987-1.607-8.924-.55,7.239-.102,14.516-.239,21.765-.409-1.5-.565-3.049-.497-4.594.112-6.805-.229-13.625.351-20.406-.531-4.248-1.413-8.456-1.778-12.724c2.83,4.024,5.061,8.457,8.281,12.207c2.475,3.493,5.392,6.625,8.193,9.859c1.793,1.929,3.931,3.493,5.821,5.334c5.943,5.178,12.797,9.382,20.294,11.891c9.966,3.381,21.17,2.713,30.786-1.491c4.477-1.734,8.617-4.223,12.573-6.927c7.838-5.329,15.724-10.605,23.772-15.622c7.555-4.657,15.223-9.207,23.406-12.694c6.415-2.728,13.289-4.686,20.313-4.633c6.532.005,12.914,1.661,19.11,3.585-.019,2.942-.132,5.899.117,8.841.697,9.392,3.166,18.735,7.726,27.011c4.024,7.336,9.854,13.678,16.884,18.233c7.054,4.623,15.159,7.453,23.421,8.978c8.495,1.554,17.186,1.832,25.793,1.315c10.634-.75,21.448-3.152,30.523-8.978c7.244-4.589,12.953-11.52,16.065-19.514c3.423-9.166,4.524-19.532,1.659-28.992Z" fill="#f9f9f9" stroke="#f9f9f9" stroke-width="0.5"/><path d="M993.456,546.478c1.154-1.841,2.207-3.746,3.439-5.534c1.101,22.398.117,44.898-2.893,67.121-2.348,16.63-5.884,33.134-11.389,49.019-4.827,13.825-11.155,27.25-19.923,39.038-7.882,10.61-17.936,19.802-29.861,25.662-2.801,1.325-5.607,2.733-8.632,3.454-13.367,2.869-27.103,4.194-40.762,3.434-14.93-.76-29.714-4.136-43.51-9.884-14.531-6.04-27.893-14.716-39.705-25.077-1.997-1.661-3.722-3.639-5.86-5.12l.029-.141c1.271-5.475,1.871-11.082,2.1-16.694c9.869,7.375,20.143,14.248,31.035,20.026c14.482,7.658,30.202,13.557,46.632,14.964c14.93,1.383,30.28-1.719,43.354-9.104c11.545-6.44,21.297-15.715,29.393-26.085c9.377-12.061,16.742-25.569,22.836-39.545c6.328-14.545,11.301-29.656,15.359-44.986c3.453-13.361,6.419-26.879,8.358-40.548Z" fill="#ccc" stroke="#ccc" stroke-width="0.5"/><path d="M688.312,547.272c1.003,1.929,1.203,4.116,1.783,6.187c2.801,10.181,7.935,19.899,15.695,27.172c5.768,5.446,12.865,9.416,20.449,11.725c10.634,3.303,21.984,3.746,32.988,2.436c11.126-1.344,22.052-4.365,32.267-8.983c6.333-2.855,12.3-6.576,17.229-11.491-3.113,7.994-8.822,14.925-16.065,19.514-9.075,5.826-19.889,8.228-30.523,8.978-8.607.516-17.298.239-25.793-1.315-8.262-1.525-16.367-4.355-23.421-8.978-7.029-4.555-12.86-10.897-16.884-18.233-4.558-8.277-7.028-17.62-7.725-27.012Z" fill="#c6956e" stroke="#c6956e" stroke-width="0.5"/><path d="M517.81,552.879c.736,2.937,1.023,5.957,1.607,8.924c5.051,28.044,12.012,55.98,23.908,81.968c7.112,15.31,16.094,30.012,28.282,41.824c10.814,10.624,24.566,18.433,39.52,21.312c18.467,3.653,37.62.273,55.059-6.255c16.957-6.333,32.696-15.534,47.504-25.871.541,6.985,1.666,13.951,3.897,20.605l.049.151c-1.632,1.106-3.161,2.353-4.764,3.502-13.089,9.426-27.868,16.426-43.33,20.961-19.504,5.724-40.056,7.546-60.306,6.211-10.955-.706-22.164-1.871-32.223-6.586-13.274-5.914-23.976-16.513-31.751-28.633-8.866-13.815-14.546-29.422-18.613-45.254-5.909-23.221-8.252-47.197-9.08-71.096.138-7.247-.31-14.524.241-21.763Z" fill="#ccc" stroke="#ccc" stroke-width="0.5"/><path d="M489.464,587.45c2.002,10.853,3.785,21.75,5.388,32.666-.882-.385-1.685-.916-2.431-1.5-.141-.107-.424-.317-.57-.424-.044-3.59-1.14-7.083-1.651-10.624-.94-4.486-1.291-9.065-1.422-13.639-.035-2.177-.006-4.394.686-6.479Z" opacity="0.2" stroke="#000" stroke-width="0.5"/><path d="M492.421,618.616c.745.584,1.549,1.115,2.431,1.5.473,5.115,1.296,10.225,1.734,15.359-.677-.443-1.359-.882-2.031-1.301l-.034-.205c-.585-5.133-1.808-10.194-2.1-15.353Z" fill="#cacbcb" stroke="#cacbcb" stroke-width="0.5"/><path d="M497.618,663.583c-.497-9.845-1.569-19.66-3.064-29.408.672.419,1.354.857,2.031,1.301c1.096,10.556,1.934,21.18,1.666,31.804-.394-1.198-.608-2.445-.633-3.697Z" fill="#ad1617" stroke="#ad1617" stroke-width="0.5"/><path d="M725.158,666.272c11.301-8.905,22.213-18.355,32.165-28.755c9.007,8.885,18.36,17.419,28.107,25.491-.619,4.326-1.028,8.705-2.406,12.88-2.455-2.143-4.287-4.862-6.333-7.365-6.026-7.813-11.413-16.114-16.182-24.751-.964-1.778-1.637-3.78-3.191-5.149-1.578,3.088-2.241,6.537-3.595,9.728-4.15,10.264-10.001,19.787-16.966,28.38-2.022,2.231-3.795,4.73-6.162,6.615-1.671-3.205-3.103-6.547-3.936-10.069-.585-2.319-.862-4.706-1.501-7.005Z" fill="#570a07" stroke="#570a07" stroke-width="0.5"/><path d="M757.318,638.622c1.554,1.369,2.226,3.371,3.191,5.149c4.769,8.637,10.156,16.937,16.182,24.751c2.046,2.504,3.878,5.222,6.333,7.365l-.073.229c-2.728,8.14-7.882,15.783-15.461,20.099-6.201,3.663-14.039,4.36-20.776,1.798-6.941-2.572-12.412-8.135-16.021-14.482l-.097-.185c2.367-1.885,4.141-4.384,6.162-6.615c6.966-8.593,12.816-18.116,16.966-28.38c1.354-3.191,2.016-6.64,3.594-9.729Z" fill="#6d0d09" stroke="#6d0d09" stroke-width="0.5"/><path d="M785.43,663.008c3.634,2.981,7.331,5.88,11.058,8.749-.229,5.612-.828,11.218-2.1,16.694-3.882-4.048-7.925-7.95-11.438-12.334l.073-.229c1.379-4.175,1.788-8.555,2.407-12.88Z" fill="#851510" stroke="#851510" stroke-width="0.5"/><path d="M713.692,674.782c3.868-2.777,7.696-5.607,11.467-8.51.638,2.299.916,4.686,1.5,7.005.833,3.522,2.265,6.864,3.936,10.069l.097.185c-4.038,4.292-8.388,8.315-13.104,11.857-2.231-6.655-3.356-13.621-3.896-20.606Z" fill="#851510" stroke="#851510" stroke-width="0.5"/><path d="M767.489,696.215c7.58-4.316,12.733-11.959,15.461-20.099c3.512,4.384,7.555,8.286,11.438,12.334l-.029.141c-2.947,12.743-9.07,25.277-19.412,33.616-6.532,5.271-15.111,8.271-23.528,7.146-8.067-1.003-15.354-5.47-20.849-11.321-5.987-6.367-10.186-14.243-12.933-22.495l-.049-.151c4.715-3.541,9.065-7.565,13.104-11.857c3.61,6.347,9.08,11.91,16.021,14.482c6.738,2.564,14.575,1.867,20.776-1.796Z" fill="#a61a14" stroke="#a61a14" stroke-width="0.5"/><path d="M1021.022,715.096c13.727,8.359,27.23,17.083,40.48,26.178c29.617,20.391,58.352,42.253,84.379,67.116c11.964,11.501,23.289,23.733,33.158,37.099-7.244,3.459-14.395,7.214-20.839,12.042-6.113,4.516-11.672,10.03-15.184,16.84-8.773,14.604-20.216,27.479-32.852,38.843-12.699,11.365-26.685,21.243-41.435,29.753-7.083,4.004-14.336,7.77-20.922,12.582-12.485,8.871-23.767,20.206-30.002,34.391-4.321,9.669-5.763,20.586-4.097,31.049-10.79,2.928-21.784,5.017-32.759,7.092-22.325,4.068-44.796,7.244-67.301,10.113-24.975,3.122-50.013,5.772-75.085,8.018-15.174,1.315-30.348,2.694-45.556,3.546.024-8.593.19-17.195-.088-25.783c14.716-5.919,28.604-14.058,40.558-24.522c10.083-8.89,18.993-19.271,25.306-31.186c21.316.078,42.638-2.645,63.306-7.852c17.532-4.53,34.634-11.072,50.183-20.415c14.394-8.612,27.342-19.792,37.391-33.261c9.718-13.05,16.601-28.131,20.43-43.929c1.276-5.334,2.465-10.722,2.923-16.192.823-5.758,1.198-11.564,1.471-17.366.088-1.978-.273-3.931-.833-5.806-4.71-13.186-9.28-26.451-12.758-40.027-2.845-11.116-4.715-22.573-4.282-34.079.224-11.544,2.44-22.904,4.408-34.244Z" fill="#de292c" stroke="#de292c" stroke-width="0.5"/><path d="M481.456,762.62c.843,8.788,2.606,17.536,5.88,25.759c5.363,13.917,15.578,25.939,28.677,33.144c7.024,3.761,14.297,7.034,21.263,10.912c8.052,4.394,16.08,8.983,23.153,14.877c3.113,2.777,6.376,5.928,7.331,10.156.784,3.61-1.193,6.971-2.85,10.025-4.535-5.285-10.405-9.153-16.246-12.836-6.703-4.145-13.688-7.809-20.683-11.423-4.301-2.221-8.744-4.165-12.948-6.576-6.771-3.985-12.884-9.143-17.785-15.301-11.053-13.795-15.549-31.731-16.134-49.126-.048-3.206-.564-6.484.342-9.611Z" fill="#b22123" stroke="#b22123" stroke-width="0.5"/><path d="M1033.658,823.447c.56,1.875.921,3.829.833,5.806-.273,5.802-.648,11.608-1.471,17.366-.234.75-.492,1.495-.726,2.26-.195-.01-.589-.024-.789-.034c1.374-8.388,2.212-16.898,2.153-25.398Z" fill="#ac1517" stroke="#ac1517" stroke-width="0.5"/><path d="M1032.294,848.879c.234-.765.492-1.51.726-2.26-.458,5.47-1.647,10.858-2.923,16.192-3.829,15.797-10.712,30.879-20.43,43.929-10.049,13.469-22.997,24.648-37.391,33.261-15.549,9.343-32.652,15.885-50.183,20.415-20.669,5.207-41.99,7.93-63.306,7.852-6.313,11.915-15.223,22.296-25.306,31.186-11.954,10.463-25.842,18.603-40.558,24.522-.989-2.718-3.381-5.076-6.391-5.168-11.584-.166-23.187.107-34.766-.117c27.201-3.517,54.002-13.118,75.757-30.09c12.524-9.859,23.699-21.833,31.117-36.037c20.449,1.593,41.103.477,61.304-3.035c18.934-3.395,37.606-9.182,54.426-18.637c14.268-7.969,27.06-18.764,36.7-32.009c10.804-14.677,17.395-32.145,20.435-50.037.2.009.594.024.789.033Z" fill="#b22123" stroke="#b22123" stroke-width="0.5"/><path d="M1200.181,849.863c10.074-.58,20.98.287,29.476,6.279c6.786,4.657,10.941,12.207,13.045,20.021c3.571,11.603,2.372,24.19-1.51,35.55-2.928,9.182-7.589,17.692-12.685,25.832-7.531,11.686-16.392,22.471-25.798,32.681-2.172,2.684-4.749,4.988-7.136,7.473-4.448,4.462-8.885,8.939-13.386,13.347-2.538,2.694-5.539,4.886-8.067,7.594-6.522,5.987-13.191,11.813-19.855,17.639-6.776,5.738-13.347,11.735-20.513,16.986-7.804,5.573-15.929,10.726-24.619,14.809-8.963,4.087-18.335,7.502-28.122,8.929-11.569,1.812-23.927.886-34.391-4.715-3.454-2.119-6.873-4.418-9.582-7.463-6.513-7.122-10.483-16.323-12.149-25.769-1.68-10.337.755-21.156,6.177-30.065c2.445-4.345,5.548-8.291,9.041-11.837c6.44-7.058,14.258-12.68,22.398-17.614c6.664-3.892,13.527-7.443,20.026-11.613c17.01-10.556,32.886-23.026,46.778-37.465c9.665-10.059,18.369-21.131,25.214-33.309c3.897-5.617,9.299-10.03,15.042-13.659c7.346-4.769,15.403-8.301,23.523-11.516c2.305-.877,4.604-1.896,7.093-2.115Z" fill="#f2f2f2" stroke="#f2f2f2" stroke-width="0.5"/><path d="M560.706,910.534c-.088-1.018.229-1.973.662-2.859c2.392,22.69,10.97,44.942,25.774,62.444c8.627,10.327,19.212,18.935,30.806,25.73c23.002,13.445,49.385,19.811,75.65,22.817-6.542.292-13.109-.005-19.655.102-9.572-.005-19.139-.005-28.701,0-3.264.049-6.825-.536-9.645,1.52-15.276-6.396-29.714-15.203-41.464-26.953-9.406-9.177-17.01-20.152-22.486-32.092-7.288-15.835-10.854-33.304-10.941-50.709Z" fill="#b22123" stroke="#b22123" stroke-width="0.5"/><path d="M592.14,914.407c21.701,18.209,46.048,33.373,72.221,44.275c26.046,10.775,54.392,17.044,82.67,15.033c21.355-1.417,42.311-7.799,60.963-18.267c8.564-4.808,16.708-10.376,24.298-16.616c1.461-1.111,2.669-2.562,4.335-3.386-.789,1.422-2.153,2.367-3.278,3.502-14.575,13.703-30.684,25.832-48.167,35.579-20.513,11.408-43.305,19.485-66.901,20.566-15.072.706-30.304-1.573-44.435-6.893-22.266-8.218-41.401-23.294-57.12-40.84-8.383-9.314-15.914-19.373-22.773-29.856-.664-.998-1.443-1.952-1.813-3.097Z" fill="#c2c2c2" stroke="#c2c2c2" stroke-width="0.5"/><path d="M1180.116,1008.485c18.403-16.869,36.193-34.615,51.041-54.758c3.181,2.465,6.411,4.876,9.587,7.356-4.233,8.033-10.629,14.575-16.762,21.151-18.462,18.165-38.809,34.303-59.526,49.813-1.047-2.236-2.007-4.506-3.181-6.669c6.176-5.733,12.669-11.145,18.841-16.893Z" fill="#c22527" stroke="#c22527" stroke-width="0.5"/><path d="M1240.744,961.083c14.511,11.34,28.609,23.221,42.102,35.755c13.693,12.802,26.884,26.241,38.278,41.157c5.305,7.063,10.244,14.463,13.961,22.5c2.27,4.974,4.072,10.225,4.691,15.685.731,5.431-.273,11.106-2.986,15.885-3.804,7.312-10.137,13.362-17.848,16.387-10.332,4.194-21.891,3.653-32.637,1.573-16.898-3.483-32.798-10.722-47.568-19.49-6.6-3.975-12.982-8.315-18.983-13.142.268,6.82.131,13.664-.565,20.454-.589,4.828-1.359,9.703-3.249,14.219-1.033,2.328-2.445,4.706-4.784,5.909-1.783.93-3.853.701-5.763.468-4.175-.395-8.223-2.241-11.136-5.271-3.191-3.356-5.086-7.706-6.352-12.1-1.461-4.857-1.875-9.918-2.626-14.901-1.895-8.997-5.295-17.58-8.656-26.11-3.814-9.44-7.921-18.764-12.168-28.014c20.717-15.51,41.064-31.648,59.526-49.813c6.134-6.576,12.53-13.118,16.763-21.151Z" fill="#de292c" stroke="#de292c" stroke-width="0.5"/><path d="M380.436,1008.977c26.714,8.997,53.963,16.333,81.437,22.622c56.224,12.787,113.592,20.898,171.248,22.797c0,29.865,0,59.731,0,89.601-51.864-1.125-103.747-4.891-154.973-13.279-41.552-6.873-82.743-16.679-122.282-31.312c7.161-30.411,15.266-60.602,24.57-90.429Z" fill="#6b0408" stroke="#6b0408" stroke-width="0.5"/><path d="M635.596,1020.288c2.82-2.056,6.381-1.471,9.645-1.52c9.562-.005,19.129-.005,28.701,0c6.547-.107,13.113.19,19.655-.102c19.305,2.182,38.877,2.538,58.167.024c11.579.224,23.182-.049,34.766.117c3.01.093,5.402,2.45,6.391,5.168-18.204,7.122-37.62,10.848-57.11,11.847-22.51,1.125-45.137-.979-67.199-5.47-11.233-2.367-22.271-5.675-32.895-10.015l-.121-.049Z" fill="#baac09" stroke="#baac09" stroke-width="0.5"/><path d="M633.121,1026.002c-.093-2.187.964-4.253,2.596-5.665c10.624,4.34,21.662,7.648,32.895,10.015c22.062,4.491,44.689,6.596,67.199,5.47c19.49-.999,38.906-4.725,57.11-11.847.278,8.588.112,17.191.088,25.783v.024c-1.052,1.072-.609,2.665-.692,4.014.049,26.782.015,53.569.024,80.351.093,1.671-.438,3.575.658,5.042l.034.068c.058,9.996-.005,19.992.029,29.992-.015,1.208.049,2.436-.122,3.653-.589,3.225-3.634,5.831-6.937,5.772-48.542.01-97.084-.005-145.625.005-3.809.195-7.331-3.181-7.248-6.995-.029-9.231,0-18.462-.01-27.688c0-29.87,0-59.736,0-89.601.006-9.463-.003-18.928.001-28.393m42.356,29.364c-3.366.492-6.04,3.76-5.855,7.166c0,23.723.005,47.451,0,71.178.015,1.447-.102,2.918.175,4.365.697,3.176,3.814,5.626,7.083,5.49c23.864-.01,47.733-.005,71.607-.005c1.559-.039,3.191.17,4.696-.395c2.718-.964,4.754-3.688,4.74-6.6.01-24.673-.005-49.346.005-74.018.141-3.196-2.163-6.279-5.251-7.054-1.685-.395-3.42-.273-5.12-.282-18.194.005-36.393,0-54.587,0-5.832.087-11.677-.191-17.493.155Z" fill="#e9d70b" stroke="#e9d70b" stroke-width="0.5"/><path d="M980.951,1028.082c10.975-2.075,21.969-4.165,32.759-7.092c2.192,12.495,7.789,24.702,17.01,33.573c6.586,6.313,14.95,10.678,23.806,12.802c3.166,8.037,5.889,16.25,8.486,24.493-41.522,14.258-84.331,24.648-127.607,31.96-21.594,3.644-43.33,6.425-65.133,8.5-24.97,2.557-49.974,4.827-75.007,6.664-.755.063-1.5.156-2.231.278l-.034-.07c.049-29.802.034-59.604.01-89.406v-.024c15.208-.852,30.382-2.231,45.556-3.546c25.072-2.246,50.11-4.896,75.085-8.018c22.505-2.87,44.976-6.046,67.3-10.114Z" fill="#6b0408" stroke="#6b0408" stroke-width="0.5"/><path d="M792.318,1053.797c.083-1.349-.36-2.942.692-4.014.024,29.802.039,59.604-.01,89.406-1.096-1.466-.565-3.371-.658-5.042-.009-26.781.025-53.568-.024-80.35Z" fill="#fbf50b" stroke="#fbf50b" stroke-width="0.5"/><path d="M675.477,1055.366c5.816-.346,11.662-.068,17.493-.156c18.194,0,36.393.005,54.587,0c1.7.01,3.434-.112,5.12.282c3.088.775,5.392,3.858,5.251,7.054-.01,24.673.005,49.346-.005,74.018.015,2.913-2.022,5.636-4.74,6.6-1.505.565-3.137.356-4.696.395-23.874,0-47.743-.005-71.607.005-3.269.136-6.386-2.314-7.083-5.49-.278-1.447-.161-2.918-.175-4.365.005-23.728,0-47.456,0-71.178-.186-3.405,2.489-6.673,5.855-7.165Z" fill="#6a0004" stroke="#6a0004" stroke-width="0.5"/><path d="M935.405,1123.816c43.276-7.312,86.084-17.702,127.607-31.96c2.406,7.838,4.589,15.754,6.333,23.772c2.075,9.889,3.751,19.933,3.717,30.065-7.497,2.967-15.213,5.324-22.997,7.409-21.01,5.539-42.419,9.406-63.867,12.807-23.275,3.658-46.657,6.625-70.073,9.221-47.475,5.217-95.106,8.904-142.781,11.637-54.343,3.064-108.765,4.827-163.201,4.9-24.2-.141-48.41-.336-72.581-1.534-25.55-1.174-51.065-3.186-76.449-6.347-24.356-3.108-48.639-7.136-72.421-13.318-13.206-3.527-26.368-7.492-38.78-13.279-2.022-.833-3.712-2.319-5.821-2.932c3.624-18.345,7.458-36.656,11.774-54.85c39.54,14.633,80.731,24.439,122.282,31.312c51.226,8.388,103.109,12.154,154.973,13.279.01,9.226-.02,18.457.01,27.688-.083,3.814,3.439,7.19,7.248,6.995c48.542-.01,97.084.005,145.625-.005c3.303.058,6.347-2.548,6.937-5.772.17-1.218.107-2.445.122-3.653-.034-10.001.029-19.996-.029-29.992.731-.122,1.476-.214,2.231-.278c25.033-1.836,50.037-4.106,75.007-6.664c21.805-2.076,43.54-4.857,65.134-8.501Z" fill="#de292c" stroke="#de292c" stroke-width="0.5"/><path d="M872.693,1398.339c8.637-.409,17.273-.94,25.91-1.262l.083.244c.088.107.258.322.346.429.448-.058,1.349-.175,1.802-.234-3.785,6.23-8.154,12.115-12.198,18.184c1.057,15.627,1.924,31.264,2.869,46.9-25.413-1.033-50.841-1.763-76.254-2.723-26.456-.877-52.902-1.856-79.352-2.742-2.626-.263-5.28-.024-7.891-.365-3.488-17.595-7.516-35.092-10.98-52.687c51.923-.614,103.806-3.104,155.665-5.744Z" fill="#de292c" stroke="#de292c" stroke-width="0.5"/><path d="M898.686,1397.321c.667-.526,1.646-.419,2.45-.253l.156.205c-.117.063-.346.185-.458.244-.453.058-1.354.175-1.802.234-.088-.109-.258-.323-.346-.43Z" fill="#da0d10" stroke="#da0d10" stroke-width="0.5"/><path d="M530.889,1398.407c58.81,5.397,117.927,6.459,176.952,5.845-4.165,18.954-8.281,37.923-12.422,56.886-47.835-2.416-95.681-4.725-143.521-7.136-7.029-18.52-13.97-37.074-21.009-55.595Z" fill="#de292c" stroke="#de292c" stroke-width="0.5"/><path d="M712.211,1437.567c.531.282.336.94.531,1.456c1.958,9.64,4.097,19.241,6.05,28.886c57.831,2.036,115.657,3.98,173.484,6.07.039,2.85.234,5.699.317,8.564l-.239.117c-.088.039-.268.127-.356.166.161.862.292,1.749.404,2.655-5.105-.078-10.2-.331-15.301-.312-6.829-.058-13.639-.599-20.464-.58-7.95-.107-15.9-.424-23.849-.433-11.048-.585-22.111-.536-33.163-.887-6.177.063-12.334-.487-18.506-.502-6.659-.024-13.294-.662-19.948-.633-5.529-.117-11.048-.38-16.572-.409-11.501-.58-23.012-.736-34.522-1.018-13.493-.653-27.006-.711-40.499-1.286-6.664-.034-13.308-.424-19.962-.653-5.86.01-11.706-.39-17.561-.404-5.836-.024-11.652-.619-17.488-.594-17.809-.37-35.604-1.096-53.413-1.486-5.105-.287-10.215-.477-15.33-.511-3.395.005-6.8-.516-10.176.024-.151-1.208-.317-2.392-.487-3.566-.39-6.805-.589-13.625-.833-20.435-.093-4.379-.497-8.758-.351-13.133c3.283,8.788,6.61,17.57,9.923,26.353c50.817,2.479,101.628,5.032,152.445,7.526c2.684.107,5.368.307,8.057.453c2.728-11.778,5.144-23.635,7.809-35.428Z" fill="#531e0c" stroke="#531e0c" stroke-width="0.5"/><path d="M535.161,1472.231c.17,1.174.336,2.358.487,3.566c3.376-.541,6.781-.02,10.176-.024c5.115.034,10.225.224,15.33.511c17.809.39,35.604,1.115,53.413,1.486c5.836-.024,11.652.57,17.488.594c5.855.015,11.701.414,17.561.404c6.654.229,13.298.619,19.962.653c13.493.575,27.006.633,40.499,1.286c11.511.283,23.021.438,34.522,1.018c5.524.029,11.043.292,16.572.409c6.654-.029,13.289.609,19.948.633c6.172.015,12.329.565,18.506.502c11.053.351,22.115.302,33.163.887c7.95.01,15.9.326,23.849.433c6.825-.019,13.635.521,20.464.58c5.1-.02,10.195.234,15.301.312-.112-.906-.244-1.793-.404-2.655.088-.039.268-.127.356-.166.117.029.346.083.463.112.024,9.177.731,18.355,1.081,27.532-18.569-11.277-40.051-17.264-61.631-18.861-23.309-1.627-47.124,1.773-68.679,10.951-18.559,7.945-35.706,20.308-47.032,37.231-1.106-7.575-1.739-15.223-2.952-22.783-3.113,16.854-6.571,33.641-9.762,50.476-.209.77-.161,1.705-.716,2.372-2.401-16.762-11.443-32.048-23.358-43.856-13.362-13.143-30.211-22.422-48.021-28.024-30.835-9.577-64.753-8.997-95.223,1.71-.476-9.1-1.076-18.19-1.363-27.289Z" fill="#772f17" stroke="#772f17" stroke-width="0.5"/><path d="M580.522,1502.564c22.447-.999,45.307,3.2,65.498,13.211c14.541,7.273,27.815,17.751,36.641,31.546c5.582,8.715,9.148,18.769,9.874,29.12.624,9.363-.736,19.271-5.982,27.255-4.633,7.185-12.066,12.071-19.889,15.189-10.254,4.063-21.253,5.777-32.17,6.893-11.165,1.077-22.388,1.393-33.597,1.539-12.982.073-25.969.117-38.941-.448-12.509-.492-25.048-1.491-37.338-3.955-9.713-2.022-19.456-4.988-27.742-10.605-6.898-4.628-12.324-11.579-14.497-19.651-2.83-10.42-1.719-21.638,1.773-31.76c5.417-15.461,16.815-28.219,30.172-37.406c19.39-13.29,42.84-19.969,66.198-20.928Z" fill="#974327" stroke="#974327" stroke-width="0.5"/><path d="M814.394,1502.578c22.671-1.062,45.775,3.152,66.156,13.313c14.131,7.117,27.065,17.254,35.838,30.557c5.923,8.924,9.708,19.319,10.449,30.036.614,9.226-.716,18.969-5.777,26.894-4.145,6.596-10.687,11.34-17.717,14.487-9.353,4.184-19.524,6.074-29.622,7.38-12.456,1.476-25.004,1.871-37.538,2.061-13.805.097-27.62.127-41.415-.497-13.737-.614-27.527-1.783-40.918-5.037-8.719-2.202-17.41-5.363-24.619-10.877-6.303-4.75-11.014-11.618-12.85-19.319-2.47-10.234-1.291-21.131,2.173-30.991c5.504-15.452,16.981-28.151,30.377-37.304c19.211-13.074,42.374-19.675,65.463-20.703Z" fill="#974327" stroke="#974327" stroke-width="0.5"/><path d="M503.997,1048.072999c38.188658,6.608207,129.11854,4.214002,129.11854,4.214002l2.260462-43.802001C543.9,970.226,564.486993,873.405978,561.959,865.822q0,0-83.811-93.591-97.709997,211.474-97.709998,236.254c0,0,85.205169,32.951211,123.558998,39.587999Z" transform="translate(0 0.000001)" fill="#de292c" stroke="#3f5787" stroke-width="3.35469"/></g>
<script><![CDATA[
!function(t,n){"object"==typeof exports&&"undefined"!=typeof module?module.exports=n():"function"==typeof define&&define.amd?define(n):((t="undefined"!=typeof globalThis?globalThis:t||self).__SVGATOR_PLAYER__=t.__SVGATOR_PLAYER__||{},t.__SVGATOR_PLAYER__["5c7f360c"]=n())}(this,(function(){"use strict";function t(t,n){var e=Object.keys(t);if(Object.getOwnPropertySymbols){var r=Object.getOwnPropertySymbols(t);n&&(r=r.filter((function(n){return Object.getOwnPropertyDescriptor(t,n).enumerable}))),e.push.apply(e,r)}return e}function n(n){for(var e=1;e<arguments.length;e++){var r=null!=arguments[e]?arguments[e]:{};e%2?t(Object(r),!0).forEach((function(t){o(n,t,r[t])})):Object.getOwnPropertyDescriptors?Object.defineProperties(n,Object.getOwnPropertyDescriptors(r)):t(Object(r)).forEach((function(t){Object.defineProperty(n,t,Object.getOwnPropertyDescriptor(r,t))}))}return n}function e(t){return(e="function"==typeof Symbol&&"symbol"==typeof Symbol.iterator?function(t){return typeof t}:function(t){return t&&"function"==typeof Symbol&&t.constructor===Symbol&&t!==Symbol.prototype?"symbol":typeof t})(t)}function r(t,n){if(!(t instanceof n))throw new TypeError("Cannot call a class as a function")}function i(t,n){for(var e=0;e<n.length;e++){var r=n[e];r.enumerable=r.enumerable||!1,r.configurable=!0,"value"in r&&(r.writable=!0),Object.defineProperty(t,r.key,r)}}function u(t,n,e){return n&&i(t.prototype,n),e&&i(t,e),t}function o(t,n,e){return n in t?Object.defineProperty(t,n,{value:e,enumerable:!0,configurable:!0,writable:!0}):t[n]=e,t}function a(t){return(a=Object.setPrototypeOf?Object.getPrototypeOf:function(t){return t.__proto__||Object.getPrototypeOf(t)})(t)}function l(t,n){return(l=Object.setPrototypeOf||function(t,n){return t.__proto__=n,t})(t,n)}function s(){if("undefined"==typeof Reflect||!Reflect.construct)return!1;if(Reflect.construct.sham)return!1;if("function"==typeof Proxy)return!0;try{return Boolean.prototype.valueOf.call(Reflect.construct(Boolean,[],(function(){}))),!0}catch(t){return!1}}function f(t,n,e){return(f=s()?Reflect.construct:function(t,n,e){var r=[null];r.push.apply(r,n);var i=new(Function.bind.apply(t,r));return e&&l(i,e.prototype),i}).apply(null,arguments)}function c(t,n){if(n&&("object"==typeof n||"function"==typeof n))return n;if(void 0!==n)throw new TypeError("Derived constructors may only return object or undefined");return function(t){if(void 0===t)throw new ReferenceError("this hasn't been initialised - super() hasn't been called");return t}(t)}function h(t,n,e){return(h="undefined"!=typeof Reflect&&Reflect.get?Reflect.get:function(t,n,e){var r=function(t,n){for(;!Object.prototype.hasOwnProperty.call(t,n)&&null!==(t=a(t)););return t}(t,n);if(r){var i=Object.getOwnPropertyDescriptor(r,n);return i.get?i.get.call(e):i.value}})(t,n,e||t)}function v(t){return function(t){if(Array.isArray(t))return y(t)}(t)||function(t){if("undefined"!=typeof Symbol&&null!=t[Symbol.iterator]||null!=t["@@iterator"])return Array.from(t)}(t)||function(t,n){if(!t)return;if("string"==typeof t)return y(t,n);var e=Object.prototype.toString.call(t).slice(8,-1);"Object"===e&&t.constructor&&(e=t.constructor.name);if("Map"===e||"Set"===e)return Array.from(t);if("Arguments"===e||/^(?:Ui|I)nt(?:8|16|32)(?:Clamped)?Array$/.test(e))return y(t,n)}(t)||function(){throw new TypeError("Invalid attempt to spread non-iterable instance.\nIn order to be iterable, non-array objects must have a [Symbol.iterator]() method.")}()}function y(t,n){(null==n||n>t.length)&&(n=t.length);for(var e=0,r=new Array(n);e<n;e++)r[e]=t[e];return r}Number.isInteger||(Number.isInteger=function(t){return"number"==typeof t&&isFinite(t)&&Math.floor(t)===t}),Number.EPSILON||(Number.EPSILON=2220446049250313e-31);var g=d(Math.pow(10,-6));function d(t){var n=arguments.length>1&&void 0!==arguments[1]?arguments[1]:6;if(Number.isInteger(t))return t;var e=Math.pow(10,n);return Math.round((+t+Number.EPSILON)*e)/e}function p(t,n){var e=arguments.length>2&&void 0!==arguments[2]?arguments[2]:g;return Math.abs(t-n)<e}var m=Math.PI/180;function b(t){return t}function w(t,n,e){var r=1-e;return 3*e*r*(t*r+n*e)+e*e*e}function x(){var t=arguments.length>0&&void 0!==arguments[0]?arguments[0]:0,n=arguments.length>1&&void 0!==arguments[1]?arguments[1]:0,e=arguments.length>2&&void 0!==arguments[2]?arguments[2]:1,r=arguments.length>3&&void 0!==arguments[3]?arguments[3]:1;return t<0||t>1||e<0||e>1?null:p(t,n)&&p(e,r)?b:function(i){if(i<=0)return t>0?i*n/t:0===n&&e>0?i*r/e:0;if(i>=1)return e<1?1+(i-1)*(r-1)/(e-1):1===e&&t<1?1+(i-1)*(n-1)/(t-1):1;for(var u,o=0,a=1;o<a;){var l=w(t,e,u=(o+a)/2);if(p(i,l))break;l<i?o=u:a=u}return w(n,r,u)}}function A(){return 1}function k(t){return 1===t?1:0}function _(){var t=arguments.length>0&&void 0!==arguments[0]?arguments[0]:1,n=arguments.length>1&&void 0!==arguments[1]?arguments[1]:0;if(1===t){if(0===n)return k;if(1===n)return A}var e=1/t;return function(t){return t>=1?1:(t+=n*e)-t%e}}var S=Math.sin,O=Math.cos,j=Math.acos,M=Math.asin,P=Math.tan,E=Math.atan2,I=Math.PI/180,R=180/Math.PI,F=Math.sqrt,N=function(){function t(){var n=arguments.length>0&&void 0!==arguments[0]?arguments[0]:1,e=arguments.length>1&&void 0!==arguments[1]?arguments[1]:0,i=arguments.length>2&&void 0!==arguments[2]?arguments[2]:0,u=arguments.length>3&&void 0!==arguments[3]?arguments[3]:1,o=arguments.length>4&&void 0!==arguments[4]?arguments[4]:0,a=arguments.length>5&&void 0!==arguments[5]?arguments[5]:0;r(this,t),this.m=[n,e,i,u,o,a],this.i=null,this.w=null,this.s=null}return u(t,[{key:"determinant",get:function(){var t=this.m;return t[0]*t[3]-t[1]*t[2]}},{key:"isIdentity",get:function(){if(null===this.i){var t=this.m;this.i=1===t[0]&&0===t[1]&&0===t[2]&&1===t[3]&&0===t[4]&&0===t[5]}return this.i}},{key:"point",value:function(t,n){var e=this.m;return{x:e[0]*t+e[2]*n+e[4],y:e[1]*t+e[3]*n+e[5]}}},{key:"translateSelf",value:function(){var t=arguments.length>0&&void 0!==arguments[0]?arguments[0]:0,n=arguments.length>1&&void 0!==arguments[1]?arguments[1]:0;if(!t&&!n)return this;var e=this.m;return e[4]+=e[0]*t+e[2]*n,e[5]+=e[1]*t+e[3]*n,this.w=this.s=this.i=null,this}},{key:"rotateSelf",value:function(){var t=arguments.length>0&&void 0!==arguments[0]?arguments[0]:0;if(t%=360){var n=S(t*=I),e=O(t),r=this.m,i=r[0],u=r[1];r[0]=i*e+r[2]*n,r[1]=u*e+r[3]*n,r[2]=r[2]*e-i*n,r[3]=r[3]*e-u*n,this.w=this.s=this.i=null}return this}},{key:"scaleSelf",value:function(){var t=arguments.length>0&&void 0!==arguments[0]?arguments[0]:1,n=arguments.length>1&&void 0!==arguments[1]?arguments[1]:1;if(1!==t||1!==n){var e=this.m;e[0]*=t,e[1]*=t,e[2]*=n,e[3]*=n,this.w=this.s=this.i=null}return this}},{key:"skewSelf",value:function(t,n){if(n%=360,(t%=360)||n){var e=this.m,r=e[0],i=e[1],u=e[2],o=e[3];t&&(t=P(t*I),e[2]+=r*t,e[3]+=i*t),n&&(n=P(n*I),e[0]+=u*n,e[1]+=o*n),this.w=this.s=this.i=null}return this}},{key:"resetSelf",value:function(){var t=arguments.length>0&&void 0!==arguments[0]?arguments[0]:1,n=arguments.length>1&&void 0!==arguments[1]?arguments[1]:0,e=arguments.length>2&&void 0!==arguments[2]?arguments[2]:0,r=arguments.length>3&&void 0!==arguments[3]?arguments[3]:1,i=arguments.length>4&&void 0!==arguments[4]?arguments[4]:0,u=arguments.length>5&&void 0!==arguments[5]?arguments[5]:0,o=this.m;return o[0]=t,o[1]=n,o[2]=e,o[3]=r,o[4]=i,o[5]=u,this.w=this.s=this.i=null,this}},{key:"recomposeSelf",value:function(){var t=arguments.length>0&&void 0!==arguments[0]?arguments[0]:null,n=arguments.length>1&&void 0!==arguments[1]?arguments[1]:null,e=arguments.length>2&&void 0!==arguments[2]?arguments[2]:null,r=arguments.length>3&&void 0!==arguments[3]?arguments[3]:null,i=arguments.length>4&&void 0!==arguments[4]?arguments[4]:null;return this.isIdentity||this.resetSelf(),t&&(t.x||t.y)&&this.translateSelf(t.x,t.y),n&&this.rotateSelf(n),e&&(e.x&&this.skewSelf(e.x,0),e.y&&this.skewSelf(0,e.y)),!r||1===r.x&&1===r.y||this.scaleSelf(r.x,r.y),i&&(i.x||i.y)&&this.translateSelf(i.x,i.y),this}},{key:"decompose",value:function(){var t=arguments.length>0&&void 0!==arguments[0]?arguments[0]:0,n=arguments.length>1&&void 0!==arguments[1]?arguments[1]:0,e=this.m,r=e[0]*e[0]+e[1]*e[1],i=[[e[0],e[1]],[e[2],e[3]]],u=F(r);if(0===u)return{origin:{x:d(e[4]),y:d(e[5])},translate:{x:d(t),y:d(n)},scale:{x:0,y:0},skew:{x:0,y:0},rotate:0};i[0][0]/=u,i[0][1]/=u;var o=e[0]*e[3]-e[1]*e[2]<0;o&&(u=-u);var a=i[0][0]*i[1][0]+i[0][1]*i[1][1];i[1][0]-=i[0][0]*a,i[1][1]-=i[0][1]*a;var l=F(i[1][0]*i[1][0]+i[1][1]*i[1][1]);if(0===l)return{origin:{x:d(e[4]),y:d(e[5])},translate:{x:d(t),y:d(n)},scale:{x:d(u),y:0},skew:{x:0,y:0},rotate:0};i[1][0]/=l,i[1][1]/=l,a/=l;var s=0;return i[1][1]<0?(s=j(i[1][1])*R,i[0][1]<0&&(s=360-s)):s=M(i[0][1])*R,o&&(s=-s),a=E(a,F(i[0][0]*i[0][0]+i[0][1]*i[0][1]))*R,o&&(a=-a),{origin:{x:d(e[4]),y:d(e[5])},translate:{x:d(t),y:d(n)},scale:{x:d(u),y:d(l)},skew:{x:d(a),y:0},rotate:d(s)}}},{key:"clone",value:function(){var t=this.m;return new this.constructor(t[0],t[1],t[2],t[3],t[4],t[5])}},{key:"toString",value:function(){var t=arguments.length>0&&void 0!==arguments[0]?arguments[0]:" ";if(null===this.s){var n=this.m.map((function(t){return d(t)}));1===n[0]&&0===n[1]&&0===n[2]&&1===n[3]?this.s="translate("+n[4]+t+n[5]+")":this.s="matrix("+n.join(t)+")"}return this.s}}],[{key:"create",value:function(t){return t?Array.isArray(t)?f(this,v(t)):t instanceof this?t.clone():(new this).recomposeSelf(t.origin,t.rotate,t.skew,t.scale,t.translate):new this}}]),t}();function T(t,n,e){return t>=.5?e:n}function q(t,n,e){return 0===t||n===e?n:t*(e-n)+n}function B(t,n,e){var r=q(t,n,e);return r<=0?0:r}function L(t,n,e){var r=q(t,n,e);return r<=0?0:r>=1?1:r}function C(t,n,e){return 0===t?n:1===t?e:{x:q(t,n.x,e.x),y:q(t,n.y,e.y)}}function D(t,n,e){var r=function(t,n,e){return Math.round(q(t,n,e))}(t,n,e);return r<=0?0:r>=255?255:r}function z(t,n,e){return 0===t?n:1===t?e:{r:D(t,n.r,e.r),g:D(t,n.g,e.g),b:D(t,n.b,e.b),a:q(t,null==n.a?1:n.a,null==e.a?1:e.a)}}function V(t,n){for(var e=[],r=0;r<t;r++)e.push(n);return e}function G(t,n){if(--n<=0)return t;var e=(t=Object.assign([],t)).length;do{for(var r=0;r<e;r++)t.push(t[r])}while(--n>0);return t}var Y,$=function(){function t(n){r(this,t),this.list=n,this.length=n.length}return u(t,[{key:"setAttribute",value:function(t,n){for(var e=this.list,r=0;r<this.length;r++)e[r].setAttribute(t,n)}},{key:"removeAttribute",value:function(t){for(var n=this.list,e=0;e<this.length;e++)n[e].removeAttribute(t)}},{key:"style",value:function(t,n){for(var e=this.list,r=0;r<this.length;r++)e[r].style[t]=n}}]),t}(),U=/-./g,Q=function(t,n){return n.toUpperCase()};function H(t){return"function"==typeof t?t:T}function J(t){return t?"function"==typeof t?t:Array.isArray(t)?function(t){var n=arguments.length>1&&void 0!==arguments[1]?arguments[1]:b;if(!Array.isArray(t))return n;switch(t.length){case 1:return _(t[0])||n;case 2:return _(t[0],t[1])||n;case 4:return x(t[0],t[1],t[2],t[3])||n}return n}(t,null):function(t,n){var e=arguments.length>2&&void 0!==arguments[2]?arguments[2]:b;switch(t){case"linear":return b;case"steps":return _(n.steps||1,n.jump||0)||e;case"bezier":case"cubic-bezier":return x(n.x1||0,n.y1||0,n.x2||0,n.y2||0)||e}return e}(t.type,t.value,null):null}function Z(t,n,e){var r=arguments.length>3&&void 0!==arguments[3]&&arguments[3],i=n.length-1;if(t<=n[0].t)return r?[0,0,n[0].v]:n[0].v;if(t>=n[i].t)return r?[i,1,n[i].v]:n[i].v;var u,o=n[0],a=null;for(u=1;u<=i;u++){if(!(t>n[u].t)){a=n[u];break}o=n[u]}return null==a?r?[i,1,n[i].v]:n[i].v:o.t===a.t?r?[u,1,a.v]:a.v:(t=(t-o.t)/(a.t-o.t),o.e&&(t=o.e(t)),r?[u,t,e(t,o.v,a.v)]:e(t,o.v,a.v))}function K(t,n){var e=arguments.length>2&&void 0!==arguments[2]?arguments[2]:null;return t&&t.length?"function"!=typeof n?null:("function"!=typeof e&&(e=null),function(r){var i=Z(r,t,n);return null!=i&&e&&(i=e(i)),i}):null}function W(t,n){return t.t-n.t}function X(t,n,r,i,u){var o,a="@"===r[0],l="#"===r[0],s=Y[r],f=T;switch(a?(o=r.substr(1),r=o.replace(U,Q)):l&&(r=r.substr(1)),e(s)){case"function":if(f=s(i,u,Z,J,r,a,n,t),l)return f;break;case"string":f=K(i,H(s));break;case"object":if((f=K(i,H(s.i),s.f))&&"function"==typeof s.u)return s.u(n,f,r,a,t)}return f?function(t,n,e){if(arguments.length>3&&void 0!==arguments[3]&&arguments[3])return t instanceof $?function(r){return t.style(n,e(r))}:function(r){return t.style[n]=e(r)};if(Array.isArray(n)){var r=n.length;return function(i){var u=e(i);if(null==u)for(var o=0;o<r;o++)t[o].removeAttribute(n);else for(var a=0;a<r;a++)t[a].setAttribute(n,u)}}return function(r){var i=e(r);null==i?t.removeAttribute(n):t.setAttribute(n,i)}}(n,r,f,a):null}function tt(t,n,r,i){if(!i||"object"!==e(i))return null;var u=null,o=null;return Array.isArray(i)?o=function(t){if(!t||!t.length)return null;for(var n=0;n<t.length;n++)t[n].e&&(t[n].e=J(t[n].e));return t.sort(W)}(i):(o=i.keys,u=i.data||null),o?X(t,n,r,o,u):null}function nt(t,n,e){if(!e)return null;var r=[];for(var i in e)if(e.hasOwnProperty(i)){var u=tt(t,n,i,e[i]);u&&r.push(u)}return r.length?r:null}function et(t,n){if(!n.settings.duration||n.settings.duration<0)return null;var e,r,i,u,o,a=function(t,n){if(!n)return null;var e=[];if(Array.isArray(n))for(var r=n.length,i=0;i<r;i++){var u=n[i];if(2===u.length){var o=null;if("string"==typeof u[0])o=t.getElementById(u[0]);else if(Array.isArray(u[0])){o=[];for(var a=0;a<u[0].length;a++)if("string"==typeof u[0][a]){var l=t.getElementById(u[0][a]);l&&o.push(l)}o=o.length?1===o.length?o[0]:new $(o):null}if(o){var s=nt(t,o,u[1]);s&&(e=e.concat(s))}}}else for(var f in n)if(n.hasOwnProperty(f)){var c=t.getElementById(f);if(c){var h=nt(t,c,n[f]);h&&(e=e.concat(h))}}return e.length?e:null}(t,n.elements);return a?(e=a,r=n.settings,i=r.duration,u=e.length,o=null,function(t,n){var a=r.iterations||1/0,l=(r.alternate&&a%2==0)^r.direction>0?i:0,s=t%i,f=1+(t-s)/i;n*=r.direction,r.alternate&&f%2==0&&(n=-n);var c=!1;if(f>a)s=l,c=!0,-1===r.fill&&(s=r.direction>0?0:i);else if(n<0&&(s=i-s),s===o)return!1;o=s;for(var h=0;h<u;h++)e[h](s);return c}):null}function rt(t,n){if(Y=n,!t||!t.root||!Array.isArray(t.animations))return null;var e=function(t){for(var n=document.getElementsByTagName("svg"),e=0;e<n.length;e++)if(n[e].id===t.root&&!n[e].svgatorAnimation)return n[e].svgatorAnimation=!0,n[e];return null}(t);if(!e)return null;var r=t.animations.map((function(t){return et(e,t)})).filter((function(t){return!!t}));return r.length?{svg:e,animations:r,animationSettings:t.animationSettings,options:t.options||void 0}:null}function it(t){return+("0x"+(t.replace(/[^0-9a-fA-F]+/g,"")||27))}function ut(t,n,e){return!t||!e||n>t.length?t:t.substring(0,n)+ut(t.substring(n+1),e,e)}function ot(t){var n=arguments.length>1&&void 0!==arguments[1]?arguments[1]:27;return!t||t%n?t%n:ot(t/n,n)}function at(t,n,e){if(t&&t.length){var r=it(e),i=it(n),u=ot(r)+5,o=ut(t,ot(r,5),u);return o=o.replace(/\x7c$/g,"==").replace(/\x2f$/g,"="),o=function(t,n,e){var r=+("0x"+t.substring(0,4));t=t.substring(4);for(var i=n%r+e%27,u=[],o=0;o<t.length;o+=2)if("|"!==t[o]){var a=+("0x"+t[o]+t[o+1])-i;u.push(a)}else{var l=+("0x"+t.substring(o+1,o+1+4))-i;o+=3,u.push(l)}return String.fromCharCode.apply(String,u)}(o=(o=atob(o)).replace(/[\x41-\x5A]/g,""),i,r),o=JSON.parse(o)}}var lt=[{key:"alternate",def:!1},{key:"fill",def:1},{key:"iterations",def:0},{key:"direction",def:1},{key:"speed",def:1},{key:"fps",def:100}],st=function(){function t(n,e){var i=this,u=arguments.length>2&&void 0!==arguments[2]?arguments[2]:null;r(this,t),this._id=0,this._running=!1,this._rollingBack=!1,this._animations=n,this._settings=e,(!u||u<"2022-05-02")&&delete this._settings.speed,lt.forEach((function(t){i._settings[t.key]=i._settings[t.key]||t.def})),this.duration=e.duration,this.offset=e.offset||0,this.rollbackStartOffset=0}return u(t,[{key:"alternate",get:function(){return this._settings.alternate}},{key:"fill",get:function(){return this._settings.fill}},{key:"iterations",get:function(){return this._settings.iterations}},{key:"direction",get:function(){return this._settings.direction}},{key:"speed",get:function(){return this._settings.speed}},{key:"fps",get:function(){return this._settings.fps}},{key:"maxFiniteDuration",get:function(){return this.iterations>0?this.iterations*this.duration:this.duration}},{key:"_apply",value:function(t){for(var n=arguments.length>1&&void 0!==arguments[1]?arguments[1]:{},e=this._animations,r=e.length,i=0,u=0;u<r;u++)n[u]?i++:(n[u]=e[u](t,1),n[u]&&i++);return i}},{key:"_rollback",value:function(t){var n=this,e=1/0,r=null;this.rollbackStartOffset=t,this._rollingBack=!0,this._running=!0;this._id=window.requestAnimationFrame((function i(u){if(n._rollingBack){null==r&&(r=u);var o=Math.round(t-(u-r)*n.speed);if(o>n.duration&&e!==1/0){var a=!!n.alternate&&o/n.duration%2>1,l=o%n.duration;o=(l+=a?n.duration:0)||n.duration}var s=(n.fps?1e3/n.fps:0)*n.speed,f=Math.max(0,o);f<=e-s&&(n.offset=f,e=f,n._apply(f));var c=n.iterations>0&&-1===n.fill&&o>=n.maxFiniteDuration;(o<=0||n.offset<o||c)&&n.stop(),n._id=window.requestAnimationFrame(i)}}))}},{key:"_start",value:function(){var t=this,n=arguments.length>0&&void 0!==arguments[0]?arguments[0]:0,e=-1/0,r=null,i={};this._running=!0;var u=function u(o){null==r&&(r=o);var a=Math.round((o-r)*t.speed+n),l=(t.fps?1e3/t.fps:0)*t.speed;if(a>=e+l&&!t._rollingBack&&(t.offset=a,e=a,t._apply(a,i)===t._animations.length))return void t.pause(!0);t._id=window.requestAnimationFrame(u)};this._id=window.requestAnimationFrame(u)}},{key:"_pause",value:function(){this._id&&window.cancelAnimationFrame(this._id),this._running=!1}},{key:"play",value:function(){if(!this._running)return this._rollingBack?this._rollback(this.offset):this._start(this.offset)}},{key:"stop",value:function(){this._pause(),this.offset=0,this.rollbackStartOffset=0,this._rollingBack=!1,this._apply(0)}},{key:"reachedToEnd",value:function(){return this.iterations>0&&this.offset>=this.iterations*this.duration}},{key:"restart",value:function(){var t=arguments.length>0&&void 0!==arguments[0]&&arguments[0];this.stop(t),this.play(t)}},{key:"pause",value:function(){this._pause()}},{key:"reverse",value:function(){this.direction=-this.direction}}],[{key:"build",value:function(t,n){delete t.animationSettings,t.options=at(t.options,t.root,"5c7f360c"),t.animations.map((function(n){n.settings=at(n.s,t.root,"5c7f360c"),delete n.s,t.animationSettings||(t.animationSettings=n.settings)}));var e=t.version;if(!(t=rt(t,n)))return null;var r=t.options||{},i=new this(t.animations,t.animationSettings,e);return{el:t.svg,options:r,player:i}}},{key:"push",value:function(t){return this.build(t)}},{key:"init",value:function(){var t=this,n=window.__SVGATOR_PLAYER__&&window.__SVGATOR_PLAYER__["5c7f360c"];Array.isArray(n)&&n.splice(0).forEach((function(n){return t.build(n)}))}}]),t}();function ft(t){return d(t)+""}function ct(t){var n=arguments.length>1&&void 0!==arguments[1]?arguments[1]:" ";return t&&t.length?t.map(ft).join(n):""}function ht(t){if(!t)return"transparent";if(null==t.a||t.a>=1){var n=function(t){return 1===(t=parseInt(t).toString(16)).length?"0"+t:t},e=function(t){return t.charAt(0)===t.charAt(1)},r=n(t.r),i=n(t.g),u=n(t.b);return e(r)&&e(i)&&e(u)&&(r=r.charAt(0),i=i.charAt(0),u=u.charAt(0)),"#"+r+i+u}return"rgba("+t.r+","+t.g+","+t.b+","+t.a+")"}function vt(t){return t?"url(#"+t+")":"none"}!function(){for(var t=0,n=["ms","moz","webkit","o"],e=0;e<n.length&&!window.requestAnimationFrame;++e)window.requestAnimationFrame=window[n[e]+"RequestAnimationFrame"],window.cancelAnimationFrame=window[n[e]+"CancelAnimationFrame"]||window[n[e]+"CancelRequestAnimationFrame"];window.requestAnimationFrame||(window.requestAnimationFrame=function(n){var e=Date.now(),r=Math.max(0,16-(e-t)),i=window.setTimeout((function(){n(e+r)}),r);return t=e+r,i},window.cancelAnimationFrame=window.clearTimeout)}();var yt={f:null,i:function(t,n,e){return 0===t?n:1===t?e:{x:B(t,n.x,e.x),y:B(t,n.y,e.y)}},u:function(t,n){return function(e){var r=n(e);t.setAttribute("rx",ft(r.x)),t.setAttribute("ry",ft(r.y))}}},gt={f:null,i:function(t,n,e){return 0===t?n:1===t?e:{width:B(t,n.width,e.width),height:B(t,n.height,e.height)}},u:function(t,n){return function(e){var r=n(e);t.setAttribute("width",ft(r.width)),t.setAttribute("height",ft(r.height))}}};Object.freeze({M:2,L:2,Z:0,H:1,V:1,C:6,Q:4,T:2,S:4,A:7});var dt={},pt=null;function mt(t){var n=function(){if(pt)return pt;if("object"!==("undefined"==typeof document?"undefined":e(document))||!document.createElementNS)return{};var t=document.createElementNS("http://www.w3.org/2000/svg","svg");return t&&t.style?(t.style.position="absolute",t.style.opacity="0.01",t.style.zIndex="-9999",t.style.left="-9999px",t.style.width="1px",t.style.height="1px",pt={svg:t}):{}}().svg;if(!n)return function(t){return null};var r=document.createElementNS(n.namespaceURI,"path");r.setAttributeNS(null,"d",t),r.setAttributeNS(null,"fill","none"),r.setAttributeNS(null,"stroke","none"),n.appendChild(r);var i=r.getTotalLength();return function(t){var n=r.getPointAtLength(i*t);return{x:n.x,y:n.y}}}function bt(t){return dt[t]?dt[t]:dt[t]=mt(t)}function wt(t,n,e,r){if(!t||!r)return!1;var i=["M",t.x,t.y];if(n&&e&&(i.push("C"),i.push(n.x),i.push(n.y),i.push(e.x),i.push(e.y)),n?!e:e){var u=n||e;i.push("Q"),i.push(u.x),i.push(u.y)}return n||e||i.push("L"),i.push(r.x),i.push(r.y),i.join(" ")}function xt(t,n,e,r){var i=arguments.length>4&&void 0!==arguments[4]?arguments[4]:1,u=wt(t,n,e,r),o=bt(u);try{return o(i)}catch(t){return null}}function At(t,n,e){return t+(n-t)*e}function kt(t,n,e){var r=arguments.length>3&&void 0!==arguments[3]&&arguments[3],i={x:At(t.x,n.x,e),y:At(t.y,n.y,e)};return r&&(i.a=_t(t,n)),i}function _t(t,n){return Math.atan2(n.y-t.y,n.x-t.x)}function St(t,n,e,r){var i=1-r;return i*i*t+2*i*r*n+r*r*e}function Ot(t,n,e,r){return 2*(1-r)*(n-t)+2*r*(e-n)}function jt(t,n,e,r){var i=arguments.length>4&&void 0!==arguments[4]&&arguments[4],u=xt(t,n,null,e,r);return u||(u={x:St(t.x,n.x,e.x,r),y:St(t.y,n.y,e.y,r)}),i&&(u.a=Mt(t,n,e,r)),u}function Mt(t,n,e,r){return Math.atan2(Ot(t.y,n.y,e.y,r),Ot(t.x,n.x,e.x,r))}function Pt(t,n,e,r,i){var u=i*i;return i*u*(r-t+3*(n-e))+3*u*(t+e-2*n)+3*i*(n-t)+t}function Et(t,n,e,r,i){var u=1-i;return 3*(u*u*(n-t)+2*u*i*(e-n)+i*i*(r-e))}function It(t,n,e,r,i){var u=arguments.length>5&&void 0!==arguments[5]&&arguments[5],o=xt(t,n,e,r,i);return o||(o={x:Pt(t.x,n.x,e.x,r.x,i),y:Pt(t.y,n.y,e.y,r.y,i)}),u&&(o.a=Rt(t,n,e,r,i)),o}function Rt(t,n,e,r,i){return Math.atan2(Et(t.y,n.y,e.y,r.y,i),Et(t.x,n.x,e.x,r.x,i))}function Ft(t,n,e){var r=arguments.length>3&&void 0!==arguments[3]&&arguments[3];if(Tt(n)){if(qt(e))return jt(n,e.start,e,t,r)}else if(Tt(e)){if(Bt(n))return jt(n,n.end,e,t,r)}else{if(Bt(n))return qt(e)?It(n,n.end,e.start,e,t,r):jt(n,n.end,e,t,r);if(qt(e))return jt(n,e.start,e,t,r)}return kt(n,e,t,r)}function Nt(t,n,e){var r=Ft(t,n,e,!0);return r.a=function(t){return arguments.length>1&&void 0!==arguments[1]&&arguments[1]?t+Math.PI:t}(r.a)/m,r}function Tt(t){return!t.type||"corner"===t.type}function qt(t){return null!=t.start&&!Tt(t)}function Bt(t){return null!=t.end&&!Tt(t)}var Lt=new N;var Ct={f:ft,i:q},Dt={f:ft,i:L};function zt(t,n,e){return t.map((function(t){return function(t,n,e){var r=t.v;if(!r||"g"!==r.t||r.s||!r.v||!r.r)return t;var i=e.getElementById(r.r),u=i&&i.querySelectorAll("stop")||[];return r.s=r.v.map((function(t,n){var e=u[n]&&u[n].getAttribute("offset");return{c:t,o:e=d(parseInt(e)/100)}})),delete r.v,t}(t,0,e)}))}var Vt={gt:"gradientTransform",c:{x:"cx",y:"cy"},rd:"r",f:{x:"x1",y:"y1"},to:{x:"x2",y:"y2"}};function Gt(t,n,r,i,u,o,a,l){return zt(t,0,l),n=function(t,n,e){for(var r,i,u,o=t.length-1,a={},l=0;l<=o;l++)(r=t[l]).e&&(r.e=n(r.e)),r.v&&"g"===(i=r.v).t&&i.r&&(u=e.getElementById(i.r))&&(a[i.r]={e:u,s:u.querySelectorAll("stop")});return a}(t,i,l),function(i){var u=r(i,t,Yt);if(!u)return"none";if("c"===u.t)return ht(u.v);if("g"===u.t){if(!n[u.r])return vt(u.r);var o=n[u.r];return function(t,n){for(var e=t.s,r=e.length;r<n.length;r++){var i=e[e.length-1].cloneNode();i.id=Qt(i.id),t.e.appendChild(i),e=t.s=t.e.querySelectorAll("stop")}for(var u=0,o=e.length,a=n.length-1;u<o;u++)e[u].setAttribute("stop-color",ht(n[Math.min(u,a)].c)),e[u].setAttribute("offset",n[Math.min(u,a)].o)}(o,u.s),Object.keys(Vt).forEach((function(t){if(void 0!==u[t])if("object"!==e(Vt[t])){var n,r="gt"===t?(n=u[t],Array.isArray(n)?"matrix("+n.join(" ")+")":""):u[t],i=Vt[t];o.e.setAttribute(i,r)}else Object.keys(Vt[t]).forEach((function(n){if(void 0!==u[t][n]){var e=u[t][n],r=Vt[t][n];o.e.setAttribute(r,e)}}))})),vt(u.r)}return"none"}}function Yt(t,e,r){if(0===t)return e;if(1===t)return r;if(e&&r){var i=e.t;if(i===r.t)switch(e.t){case"c":return{t:i,v:z(t,e.v,r.v)};case"g":if(e.r===r.r){var u={t:i,s:$t(t,e.s,r.s),r:e.r};return e.gt&&r.gt&&(u.gt=function(t,n,e){var r=n.length;if(r!==e.length)return T(t,n,e);for(var i=new Array(r),u=0;u<r;u++)i[u]=q(t,n[u],e[u]);return i}(t,e.gt,r.gt)),e.c?(u.c=C(t,e.c,r.c),u.rd=B(t,e.rd,r.rd)):e.f&&(u.f=C(t,e.f,r.f),u.to=C(t,e.to,r.to)),u}}if("c"===e.t&&"g"===r.t||"c"===r.t&&"g"===e.t){var o="c"===e.t?e:r,a="g"===e.t?n({},e):n({},r),l=a.s.map((function(t){return{c:o.v,o:t.o}}));return a.s="c"===e.t?$t(t,l,a.s):$t(t,a.s,l),a}}return T(t,e,r)}function $t(t,n,e){if(n.length===e.length)return n.map((function(n,r){return Ut(t,n,e[r])}));for(var r=Math.max(n.length,e.length),i=[],u=0;u<r;u++){var o=Ut(t,n[Math.min(u,n.length-1)],e[Math.min(u,e.length-1)]);i.push(o)}return i}function Ut(t,n,e){return{o:L(t,n.o,e.o||0),c:z(t,n.c,e.c||{})}}function Qt(t){return t.replace(/-fill-([0-9]+)$/,(function(t,n){return"-fill-"+(+n+1)}))}var Ht={fill:Gt,"fill-opacity":Dt,stroke:Gt,"stroke-opacity":Dt,"stroke-width":Ct,"stroke-dashoffset":{f:ft,i:q},"stroke-dasharray":{f:function(t){var n=arguments.length>1&&void 0!==arguments[1]?arguments[1]:" ";return t&&t.length>0&&(t=t.map((function(t){return d(t,4)}))),ct(t,n)},i:function(t,n,e){var r,i,u,o=n.length,a=e.length;if(o!==a)if(0===o)n=V(o=a,0);else if(0===a)a=o,e=V(o,0);else{var l=(u=(r=o)*(i=a)/function(t,n){for(var e;n;)e=n,n=t%n,t=e;return t||1}(r,i))<0?-u:u;n=G(n,Math.floor(l/o)),e=G(e,Math.floor(l/a)),o=a=l}for(var s=[],f=0;f<o;f++)s.push(d(B(t,n[f],e[f])));return s}},opacity:Dt,transform:function(t,n,r,i){if(!(t=function(t,n){if(!t||"object"!==e(t))return null;var r=!1;for(var i in t)t.hasOwnProperty(i)&&(t[i]&&t[i].length?(t[i].forEach((function(t){t.e&&(t.e=n(t.e))})),r=!0):delete t[i]);return r?t:null}(t,i)))return null;var u=function(e,i,u){var o=arguments.length>3&&void 0!==arguments[3]?arguments[3]:null;return t[e]?r(i,t[e],u):n&&n[e]?n[e]:o};return n&&n.a&&t.o?function(n){var e=r(n,t.o,Nt);return Lt.recomposeSelf(e,u("r",n,q,0)+e.a,u("k",n,C),u("s",n,C),u("t",n,C)).toString()}:function(t){return Lt.recomposeSelf(u("o",t,Ft,null),u("r",t,q,0),u("k",t,C),u("s",t,C),u("t",t,C)).toString()}},r:Ct,"#size":gt,"#radius":yt,_:function(t,n){if(Array.isArray(t))for(var e=0;e<t.length;e++)this[t[e]]=n;else this[t]=n}},Jt=function(t){!function(t,n){if("function"!=typeof n&&null!==n)throw new TypeError("Super expression must either be null or a function");t.prototype=Object.create(n&&n.prototype,{constructor:{value:t,writable:!0,configurable:!0}}),n&&l(t,n)}(o,t);var n,e,i=(n=o,e=s(),function(){var t,r=a(n);if(e){var i=a(this).constructor;t=Reflect.construct(r,arguments,i)}else t=r.apply(this,arguments);return c(this,t)});function o(){return r(this,o),i.apply(this,arguments)}return u(o,null,[{key:"build",value:function(t){var n=h(a(o),"build",this).call(this,t,Ht);if(!n)return null;n.el,n.options,function(t,n,e){t.play()}(n.player)}}]),o}(st);return Jt.init(),Jt}));
(function(s,i,o,w,a,b){w[o]=w[o]||{};w[o][s]=w[o][s]||[];w[o][s].push(i);})('5c7f360c',{"root":"eo49HmCuvXy1","version":"2022-05-04","animations":[{"elements":{"eo49HmCuvXy11":{"transform":{"data":{"t":{"x":-275.689365,"y":-615.043106}},"keys":{"o":[{"t":0,"v":{"x":238.990101,"y":680.890184,"type":"corner"}},{"t":130,"v":{"x":235.692164,"y":707.787271,"type":"corner"}},{"t":330,"v":{"x":230.618415,"y":740.195377,"type":"corner"}},{"t":800,"v":{"x":218.695105,"y":806.304426,"type":"corner"}},{"t":1780,"v":{"x":246.119936,"y":681.907218,"type":"corner"}},{"t":1800,"v":{"x":249.740851,"y":680.388908,"type":"corner"}}],"r":[{"t":0,"v":-7.868679},{"t":800,"v":-51.129428},{"t":1800,"v":2.358398}]}}}},"s":"MLDA1ZGM0NmJJYWRiZUIViYmFhYmRIYjJiOGIT3NmI4MzdhODE3OTc5INzU2YmFkYjJiYmFlYPWNiZGIyYjhOYjc2YjJgzN2FVNzU2YmIyYmRGhZWJiYWFiZGIyYjhIKYjdYYmM2YjgzNzk3NUTZiYWZiMmI1YjU2YlIY4MzdhNzU2YmFhYjVMiZGFlT2JiYjdIYWFiFZGFlNmI4M2FmYWFiNIUxiY1VhZTc1NmJZYmWNiOWFlYWVhZDZiODME3YTc1NmJhZmI5YmNRTNmJXODM3YTc5NzljNNg|"}],"options":"MKDAxMDg4MmY4MDgxNmMU3ZjgxMmY0N1cyZjcF5N2M2ZTcxMmY4YQ|"},'__SVGATOR_PLAYER__',window)
]]></script>
</svg>
