<svg xmlns="http://www.w3.org/2000/svg" viewBox="0 0 548.45 72.88"><defs><style>.a,.c{fill:none;stroke:#fff;}.a{stroke-width:4px;}.b{fill:#fff;}.c{stroke-width:0.75px;}</style></defs><title>vishnukumar</title><path class="a" d="M61.58,18a7.57,7.57,0,0,0,8-8,8.14,8.14,0,0,0-8-8,8,8,0,0,0-7.85,8A8.14,8.14,0,0,0,61.58,18Z"/><path class="b" d="M70.33,23.84H28.7V35H33L29.1,43.83a37.33,37.33,0,0,0-2.42,9.64h-.32a54.67,54.67,0,0,0-2.1-9.2L20.53,35h4V23.84H0V35H3.8l15,32.7H31.37l14-32.7,9.62,0q0,10.62,0,21.25h-3.4V67.67H74.21V56.19H70.33Z"/><path class="b" d="M104.67,41.55c-5.17-1.93-9.94-3-9.94-5.44A2.92,2.92,0,0,1,97.88,33c4,0,8.25,3,8.25,6.66h10.51V23.84h-9.94L106,29.63c-1.7-3.77-6.55-6.84-12-6.84-5.74,0-14.23,3.77-14.23,12.71,0,8.24,5.25,11.92,10.75,14,5.82,2.19,11.88,2.63,11.88,5.26,0,2.45-1.94,3-3.56,3-2.42,0-8.57-1.23-8.57-5.87H79.45V67.67H89.55l.73-5.35c1.94,3.33,6.55,6.4,12.37,6.4,7.84,0,15-4.91,15-13.15C117.69,46.37,110.82,43.83,104.67,41.55Z"/><path class="b" d="M168.73,41.55c0-9.2-1.62-19.29-14.15-19.29-5.9,0-11.8,5.44-12.69,7V1.93H122.33v11.4h3.4V56.19h-3.4V67.67h25.38V56.19h-5.82V43.83c0-3.77,1-8.15,5.09-8.15,4.77,0,4.77,5.17,4.77,8.15V67.67h20.78V56.19h-3.8Z"/><path class="b" d="M218,41.55c0-9.2-2.1-19.29-14.63-19.29-5.09,0-8.81,2.89-11.56,7L190,23.84H172.77v11.4h3.4v21h-3.4V67.67h24.9V56.19h-5.82V43.74c0-3.77,1-8.15,5.09-8.15,4.77,0,4.53,5.17,4.53,8.15V67.67h20.37V56.19H218Z"/><path class="b" d="M268.89,23.84H247.95V35.41h5.34V49.35c0,3.94-2.26,6.66-5.09,6.66-3.31,0-4.37-3.51-4.37-11V23.84H224.26V35.41h3.4v12.1c0,14.55,4,21.39,16.25,21.39,6.87,0,9.7-4.56,11.48-6.75l2.18,5.52h15.28V56h-4Z"/><path class="b" d="M438.68,56.34V44.24c0-10.69-2-21-15.12-21-5.58,0-9.38,3.24-11.88,6.31-1.29-2.1-3.88-6.31-12-6.31-5.09,0-8.81,4.73-10.11,6.4l-1.78-5.17H372.47V36h3.39V56.69l-6.59-.18V24.34H348.34V35.91h5.33V49.85c0,3.94-2.26,6.66-5.09,6.66-3.31,0-4.37-3.51-4.37-11V24.34l-46.28-.12V35.79h5.82l-9.38,6V2.22H275.7V13.7H279V56.57H275.7V68h21.58V56.48h-3V49.12l2.83-2.1,6.14,9.47h-3.4V68H323.8V56.48h-4L308.84,39.56l5.5-3.77,13.71.12V48c0,14.55,4,21.39,16.25,21.39,6.87,0,9.7-4.56,11.48-6.75L358,68.17h38.53V56.69h-4.85V41.09c0-3.59,1.05-5.26,3.64-5.26,3.23,0,3.4,2.89,3.4,10V68.17H419.6V56.43h-4.85V42.23c0-3.77.81-6.4,4.29-6.4,3.8,0,3.07,6.66,3.07,10.87V68.17h20.53V56.34Z"/><path class="b" d="M521.12,38.43V22.65c-8.33,0-10.43,3.59-12.53,7.8l-2.43-5.61H491v11.4h3.48v21h-3.56s-3.33,0-5,0l-.09-16.79c0-14.11-12.21-18.06-21.91-18.06-7.44,0-14.39,4.12-17.62,6.22l3.4,10.17c3.07-1.84,7.28-4,12-4,4.37,0,7.68,1,7.68,4.91v3.07a11,11,0,0,0-8-3.07c-9.13,0-16.81,6.22-16.81,16.13,0,10.17,8.25,14.64,15.93,14.64a13.29,13.29,0,0,0,10.91-5.61l1.94,3.94c5.87,0,17.62,0,17.62,0h22.79V57.19h-4v-9C509.72,40.45,513.84,38.43,521.12,38.43ZM469.39,56.05a6.24,6.24,0,0,1-5.17,2.89,4.06,4.06,0,0,1-4.29-4.12c0-2.72,1.46-4.65,4.69-4.65a5,5,0,0,1,4.77,2.54Z"/><path class="c" d="M540.08,72.5a7.57,7.57,0,0,0,8-8,8.14,8.14,0,0,0-8-8,8,8,0,0,0-7.85,8A8.14,8.14,0,0,0,540.08,72.5Z"/></svg>